<svg id="Flat_Shadow" height="512" viewBox="0 0 32 32" width="512" xmlns="http://www.w3.org/2000/svg" data-name="Flat Shadow"><path d="m26 31h-20l2.1318-17.0541a7.9294 7.9294 0 0 1 7.8682-6.9459 7.9294 7.9294 0 0 1 7.8682 6.9459z" fill="#f5f5f5"/><path d="m23.8682 13.9459a7.8916 7.8916 0 0 0 -1.3536-3.5274 7.92 7.92 0 0 0 -12.383 5.5273l-1.8816 15.0542h17.75z" fill="#f0f0f0"/><path d="m18.5 4c-.0175 0-.0338.0048-.0512.0052a2.5 2.5 0 1 0 -4.8976 0c-.0174-.0004-.0337-.0052-.0512-.0052a2.5 2.5 0 0 0 -2.5 2.5c0 2.5 5 3.5 5 3.5s5-1 5-3.5a2.5 2.5 0 0 0 -2.5-2.5z" fill="#ff5b62"/><path d="m21 6.5a2.5 2.5 0 0 0 -2.5-2.5c-.0175 0-.0338.0048-.0512.0052a2.5117 2.5117 0 0 0 .0012-1.0052h-.45a2.5017 2.5017 0 0 0 -2.4488 3.0052c-.0174-.0004-.0337-.0052-.0512-.0052a2.5 2.5 0 0 0 -2.5 2.5 1.8257 1.8257 0 0 0 .0661.4775 12.8239 12.8239 0 0 0 2.9339 1.0225s5-1 5-3.5z" fill="#ff3b40"/><circle cx="19.5" cy="14" fill="#444" r="1"/><circle cx="12.5" cy="14" fill="#444" r="1"/><path d="m19 23.5714a3.2358 3.2358 0 0 1 -3 3.4286 3.2358 3.2358 0 0 1 -3-3.4286c0-1.8935 1.3431-4.5714 3-4.5714s3 2.6779 3 4.5714z" fill="#ff3b40"/><path d="m16 24 2.263-3.1682a2.9258 2.9258 0 0 0 -2.263-1.8318 2.9258 2.9258 0 0 0 -2.263 1.8318z" fill="#f32537"/><path d="m18.5 18.5-2.5 3.5-2.5-3.5 2.5-2.5z" fill="#ffe632"/></svg>