<?xml version="1.0" encoding="utf-8"?><svg xml:space="preserve" viewBox="0 0 100 100" y="0px" x="0px" xmlns:xlink="http://www.w3.org/1999/xlink" xmlns="http://www.w3.org/2000/svg" id="圖層_1" version="1.1" width="203px" height="203px" style="width:100%;height:100%;background-size:initial;background-repeat-y:initial;background-repeat-x:initial;background-position-y:initial;background-position-x:initial;background-origin:initial;background-color:initial;background-clip:initial;background-attachment:initial;animation-play-state:paused" ><g class="ldl-scale" style="transform-origin:50% 50%;transform:rotate(0deg) scale(1, 1);animation-play-state:paused" ><path d="M66.38,63.2H33.62c-4,0-6.89-3.83-5.79-7.68l0.67-2.34c2.55-8.91,12.23-16.2,21.5-16.2h0c9.27,0,18.94,7.29,21.5,16.2l0.67,2.34 C73.27,59.37,70.38,63.2,66.38,63.2z" stroke-miterlimit="10" stroke-linejoin="round" stroke-linecap="round" stroke-width="3.5" stroke="#333435" fill="#F5E169" style="stroke:rgb(51, 52, 53);fill:rgb(245, 225, 105);animation-play-state:paused" ></path>
<path d="M63.32,89.05H36.68c-7.95,0-15.08-4.89-17.94-12.31L10.3,54.9c-1.38-3.57,2.26-7.07,5.75-5.49c22.64,10.27,45.27,10.27,67.91,0 c3.49-1.58,7.13,1.92,5.75,5.49l-8.44,21.85C78.4,84.16,71.27,89.05,63.32,89.05z" stroke-miterlimit="10" stroke-linejoin="round" stroke-linecap="round" stroke-width="3.5" stroke="#333435" fill="#FCB711" style="stroke:rgb(51, 52, 53);fill:rgb(252, 183, 17);animation-play-state:paused" ></path>
<line y2="21.28" x2="50" y1="10.95" x1="50" stroke-miterlimit="10" stroke-linejoin="round" stroke-linecap="round" stroke-width="3.5" stroke="#F5E169" fill="none" style="stroke:rgb(245, 225, 105);animation-play-state:paused" ></line>
<line y2="24.32" x2="32.75" y1="14.61" x1="29.22" stroke-miterlimit="10" stroke-linejoin="round" stroke-linecap="round" stroke-width="3.5" stroke="#F5E169" fill="none" style="stroke:rgb(245, 225, 105);animation-play-state:paused" ></line>
<line y2="33.08" x2="17.59" y1="25.16" x1="10.95" stroke-miterlimit="10" stroke-linejoin="round" stroke-linecap="round" stroke-width="3.5" stroke="#F5E169" fill="none" style="stroke:rgb(245, 225, 105);animation-play-state:paused" ></line>
<line y2="33.08" x2="82.41" y1="25.16" x1="89.05" stroke-miterlimit="10" stroke-linejoin="round" stroke-linecap="round" stroke-width="3.5" stroke="#F5E169" fill="none" style="stroke:rgb(245, 225, 105);animation-play-state:paused" ></line>
<line y2="24.32" x2="67.25" y1="14.61" x1="70.78" stroke-miterlimit="10" stroke-linejoin="round" stroke-linecap="round" stroke-width="3.5" stroke="#F5E169" fill="none" style="stroke:rgb(245, 225, 105);animation-play-state:paused" ></line>
<metadata xmlns:d="https://loading.io/stock/" style="animation-play-state:paused" ><d:name style="animation-play-state:paused" >gold ingot</d:name>


<d:tags style="animation-play-state:paused" >sycee,rich,new year,economic,financial,money,fund</d:tags>


<d:license style="animation-play-state:paused" >by</d:license>


<d:slug style="animation-play-state:paused" >t4zd3i</d:slug></metadata></g><!-- generated by https://loading.io/ --></svg>