<svg id="Flat_Shadow" height="512" viewBox="0 0 32 32" width="512" xmlns="http://www.w3.org/2000/svg" data-name="Flat Shadow"><path d="m21 13h9a0 0 0 0 1 0 0 4 4 0 0 1 -4 4h-5a0 0 0 0 1 0 0v-4a0 0 0 0 1 0 0z" fill="#e1e1e1"/><path d="m2 13h5a4 4 0 0 1 4 4 0 0 0 0 1 0 0h-9a0 0 0 0 1 0 0v-4a0 0 0 0 1 0 0z" fill="#e1e1e1" transform="matrix(-1 0 0 -1 13 30)"/><path d="m22.5355 14.3137-.7071.7071-2.8284-2.8284a12.0709 12.0709 0 0 0 3.5355-8.5355v-.6569a8 8 0 0 1 0 11.3137z" fill="#b37336"/><path d="m9.4645 14.3137.7071.7071 2.8284-2.8284a12.0709 12.0709 0 0 1 -3.5355-8.5355v-.6569a8 8 0 0 0 0 11.3137z" fill="#b37336"/><path d="m11 25h10l3.541-8.8526a3.8442 3.8442 0 0 0 -.2312-3.456c-1.3566-2.1679-4.5663-3.6914-8.3098-3.6914s-6.9533 1.5238-8.31 3.6917a3.8442 3.8442 0 0 0 -.2312 3.456z" fill="#f5f5f5"/><path d="m24.35 12.7666a11.5491 11.5491 0 0 0 -6.35-1.7666c-3.7436 0-6.9533 1.5238-8.31 3.6917a3.8442 3.8442 0 0 0 -.2312 3.456l2.7412 6.8523h8.8l3.541-8.8525a3.8554 3.8554 0 0 0 -.191-3.3809z" fill="#f0f0f0"/><rect fill="#ffefb9" height="7" rx="3.5" width="14" x="9" y="24"/><path d="m14.5 26a3.4809 3.4809 0 0 0 -3.2575 4.7575 3.475 3.475 0 0 0 1.2575.2425h7a3.4809 3.4809 0 0 0 3.2575-4.7575 3.475 3.475 0 0 0 -1.2575-.2425z" fill="#ffe99d"/><g fill="#444"><circle cx="19.5" cy="17" r="1"/><circle cx="18.5" cy="27.5" r="1"/><circle cx="13.5" cy="27.5" r="1"/><circle cx="12.5" cy="17" r="1"/></g></svg>