<svg id="Filled_Expand" height="512" viewBox="0 0 32 32" width="512" xmlns="http://www.w3.org/2000/svg" data-name="Filled Expand"><path d="m21 13h9a0 0 0 0 1 0 0 4 4 0 0 1 -4 4h-5a0 0 0 0 1 0 0v-4a0 0 0 0 1 0 0z" fill="#e1e1e1"/><path d="m2 13h5a4 4 0 0 1 4 4 0 0 0 0 1 0 0h-9a0 0 0 0 1 0 0v-4a0 0 0 0 1 0 0z" fill="#e1e1e1" transform="matrix(-1 0 0 -1 13 30)"/><path d="m22.5355 14.3137-.7071.7071-2.8284-2.8284a12.0709 12.0709 0 0 0 3.5355-8.5355v-.6569a8 8 0 0 1 0 11.3137z" fill="#b37336"/><path d="m9.4645 14.3137.7071.7071 2.8284-2.8284a12.0709 12.0709 0 0 1 -3.5355-8.5355v-.6569a8 8 0 0 0 0 11.3137z" fill="#b37336"/><path d="m11 25h10l3.541-8.8526a3.8442 3.8442 0 0 0 -.2312-3.456c-1.3566-2.1679-4.5663-3.6914-8.3098-3.6914s-6.9533 1.5238-8.31 3.6917a3.8442 3.8442 0 0 0 -.2312 3.456z" fill="#f5f5f5"/><path d="m24.35 12.7666a11.5491 11.5491 0 0 0 -6.35-1.7666c-3.7436 0-6.9533 1.5238-8.31 3.6917a3.8442 3.8442 0 0 0 -.2312 3.456l2.7412 6.8523h8.8l3.541-8.8525a3.8554 3.8554 0 0 0 -.191-3.3809z" fill="#f0f0f0"/><rect fill="#ffefb9" height="7" rx="3.5" width="14" x="9" y="24"/><path d="m14.5 26a3.4809 3.4809 0 0 0 -3.2575 4.7575 3.475 3.475 0 0 0 1.2575.2425h7a3.4809 3.4809 0 0 0 3.2575-4.7575 3.475 3.475 0 0 0 -1.2575-.2425z" fill="#ffe99d"/><circle cx="19.5" cy="17" r="1"/><circle cx="18.5" cy="27.5" r="1"/><circle cx="13.5" cy="27.5" r="1"/><circle cx="12.5" cy="17" r="1"/><path d="m25.2028 12a8.9516 8.9516 0 0 0 -1.96-9.707l-1.7072-1.7071v3.0708a10.9771 10.9771 0 0 1 -1.2623 5.0244 13.7938 13.7938 0 0 0 -8.5486-.0043 10.9736 10.9736 0 0 1 -1.26-5.02v-3.0709l-1.7074 1.7071a8.97 8.97 0 0 0 -1.9873 9.707h-5.77v1a5.0059 5.0059 0 0 0 5 5h1.1227l2.4457 6.114a4.4808 4.4808 0 0 0 2.9316 7.886h7a4.4808 4.4808 0 0 0 2.9316-7.886l2.4453-6.114h1.1231a5.0059 5.0059 0 0 0 5-5v-1zm-1.8708-6.0635a6.9737 6.9737 0 0 1 .3047 4.5445 9.23 9.23 0 0 0 -1.4848-1.001 13.1282 13.1282 0 0 0 1.1801-3.5435zm-14.664 0a13.1282 13.1282 0 0 0 1.1801 3.5435 9.23 9.23 0 0 0 -1.4848 1.001 6.9737 6.9737 0 0 1 .3047-4.5445zm-2.668 10.0635a3.005 3.005 0 0 1 -2.8286-2h3.0268a5.0231 5.0231 0 0 0 .1553 2zm13.5 14h-7a2.5 2.5 0 0 1 0-5h7a2.5 2.5 0 0 1 0 5zm1.16-6.8418c-.039-.0109-.079-.0147-.1181-.0244-.0893-.0214-.1786-.04-.27-.0558a4.3093 4.3093 0 0 0 -.7719-.078h-7a4.3093 4.3093 0 0 0 -.7717.078c-.0913.0159-.1806.0344-.27.0558-.0391.01-.0791.0135-.1181.0244l-2.953-7.3823a2.842 2.842 0 0 1 .1509-2.5542c1.2056-1.9268 4.2046-3.2217 7.4619-3.2217s6.2563 1.2949 7.4619 3.2217v.0005a2.8393 2.8393 0 0 1 .15 2.5537zm5.34-7.1582h-.3535a5.0231 5.0231 0 0 0 .1553-2h3.0268a3.005 3.005 0 0 1 -2.8286 2z"/></svg>