<svg id="Flat_Shadow" height="512" viewBox="0 0 32 32" width="512" xmlns="http://www.w3.org/2000/svg" data-name="Flat Shadow"><path d="m19.6144 27.2811a5.9838 5.9838 0 0 0 2.3856-4.7811v-6h-12v6a5.9838 5.9838 0 0 0 2.3856 4.7811z" fill="#9b602d"/><path d="m16 22.5a4.9844 4.9844 0 0 1 -3.6143 4.7811 5.968 5.968 0 0 0 7.2286 0 4.9844 4.9844 0 0 1 -3.6143-4.7811z" fill="#b37336"/><path d="m1 15v2.5a3 3 0 0 0 3 3 3 3 0 0 0 3-3v-4a3 3 0 0 1 3-3h12a3 3 0 0 1 3 3v4a3 3 0 0 0 3 3 3 3 0 0 0 3-3v-2.5a10 10 0 0 0 -10-10h-10a10 10 0 0 0 -10 10z" fill="#b37336"/><path d="m21 5h-2a10 10 0 0 1 10 10v2.5a2.9913 2.9913 0 0 1 -2 2.8163 2.9712 2.9712 0 0 0 4-2.8163v-2.5a10 10 0 0 0 -10-10z" fill="#9b602d"/><path d="m3 17.5v-2.5a10 10 0 0 1 10-10h-2a10 10 0 0 0 -10 10v2.5a2.9712 2.9712 0 0 0 4 2.8163 2.9913 2.9913 0 0 1 -2-2.8163z" fill="#c28f5e"/><path d="m16 3.5a9.5451 9.5451 0 0 0 -9.5285 8.9845l-.4715 8.0155a5 5 0 0 0 10 0 5 5 0 0 0 10 0l-.4715-8.0155a9.5451 9.5451 0 0 0 -9.5285-8.9845z" fill="#cea57e"/><path d="m25.5285 12.4844a9.5036 9.5036 0 0 0 -1.8418-5.0959 9.5349 9.5349 0 0 0 -15.2152 7.0959l-.4715 8.0156a4.9448 4.9448 0 0 0 .6254 2.3746 4.9448 4.9448 0 0 0 2.3746.6254 5 5 0 0 0 5-5 5 5 0 0 0 10 0z" fill="#c28f5e"/><g fill="#444"><path d="m18 18.5c0 1.1046-2 3-2 3s-2-1.8954-2-3a2 2 0 0 1 4 0z"/><circle cx="20" cy="12.5" r="1"/><circle cx="12" cy="12.5" r="1"/></g></svg>