<svg id="Flat_Shadow" height="512" viewBox="0 0 32 32" width="512" xmlns="http://www.w3.org/2000/svg" data-name="Flat Shadow"><path d="m24 4h4v2h-4z" fill="#ffcd0a"/><path d="m22.5 11h-4l3.5331-8.8327a1.8569 1.8569 0 0 1 1.7241-1.1673 1.857 1.857 0 0 1 1.7242 2.5466z" fill="#ffe632"/><path d="m4 4h4v2h-4z" fill="#ffcd0a"/><path d="m9.5 11h4l-3.5331-8.8327a1.8569 1.8569 0 0 0 -1.7241-1.1673 1.857 1.857 0 0 0 -1.7242 2.5466z" fill="#ffe632"/><path d="m21 10h9a0 0 0 0 1 0 0 4 4 0 0 1 -4 4h-5a0 0 0 0 1 0 0v-4a0 0 0 0 1 0 0z" fill="#ff3b40"/><path d="m2 10h5a4 4 0 0 1 4 4 0 0 0 0 1 0 0h-9a0 0 0 0 1 0 0v-4a0 0 0 0 1 0 0z" fill="#ff3b40" transform="matrix(-1 0 0 -1 13 24)"/><path d="m22 23h-12l.7609 6.0874a2.1835 2.1835 0 0 0 2.1666 1.9126h6.145a2.1835 2.1835 0 0 0 2.1666-1.9126z" fill="#32cd2b"/><path d="m10.625 28h10.75l.625-5h-12z" fill="#3abb34"/><path d="m21.4586 26h-10.9172a3 3 0 0 1 -2.9592-2.5068l-1.03-6.178a8 8 0 0 1 7.8915-9.3152h3.1126a8 8 0 0 1 7.8912 9.3152l-1.03 6.178a3 3 0 0 1 -2.9589 2.5068z" fill="#6be765"/><path d="m24.1326 11.4493a7.9307 7.9307 0 0 0 -4.5766-1.4493h-3.1126a8 8 0 0 0 -7.8912 9.3152l1.03 6.178a2.9723 2.9723 0 0 0 .0961.369 2.9765 2.9765 0 0 0 .8631.1378h10.9172a3 3 0 0 0 2.9592-2.5068l1.03-6.178a7.9491 7.9491 0 0 0 -1.3152-5.8659z" fill="#46e13f"/><path d="m32 28h-2.4507a4.12 4.12 0 0 1 -4.03-3.3042 2.1156 2.1156 0 0 0 -2.0686-1.6958h-2.4507v-2h2.4507a4.12 4.12 0 0 1 4.03 3.3042 2.1156 2.1156 0 0 0 2.0686 1.6958h2.4507z" fill="#ff3b40"/><path d="m2.4507 28h-2.4507v-2h2.4507a2.1156 2.1156 0 0 0 2.0693-1.6958 4.12 4.12 0 0 1 4.0293-3.3042h2.4507v2h-2.4507a2.1156 2.1156 0 0 0 -2.0688 1.6958 4.12 4.12 0 0 1 -4.0298 3.3042z" fill="#ff3b40"/><circle cx="20" cy="17" fill="#444" r="1"/><circle cx="12" cy="17" fill="#444" r="1"/><path d="m16 23h-2v-1a1 1 0 0 0 -2 0v1h-2v-1a3 3 0 0 1 6 0z" fill="#6be765"/><path d="m22 23h-2v-1a1 1 0 0 0 -2 0v1h-2v-1a3 3 0 0 1 6 0z" fill="#6be765"/><g fill="#3abb34"><path d="m19 21a1.0013 1.0013 0 0 0 -1 1v1h2v-1a1.0013 1.0013 0 0 0 -1-1z"/><path d="m13 21a1.0013 1.0013 0 0 0 -1 1v1h2v-1a1.0013 1.0013 0 0 0 -1-1z"/></g></svg>