<svg id="Layer_1" enable-background="new 0 0 130 130" height="512" viewBox="0 0 130 130" width="512" xmlns="http://www.w3.org/2000/svg"><g><g><g><g><circle cx="65" cy="65" fill="#f34b50" r="64"/></g></g></g><g fill="#e53946"><path d="m71.1185 9.83791c0 .55517-.45006 1.00522-1.00522 1.00522h-6.32155c-.55278 0-1.00515-.45233-1.00515-1.0052s.45237-1.00524 1.00515-1.00524h6.32155c.55516 0 1.00522.45005 1.00522 1.00522z"/><path d="m73.98642 9.83791c0-.55517.45005-1.00522 1.00522-1.00522h12.65654c.55517 0 1.00522.45005 1.00522 1.00522 0 .55517-.45005 1.00522-1.00522 1.00522h-12.65654c-.55517-.00001-1.00522-.45006-1.00522-1.00522z"/><path d="m29.70211 19.70553c.55518 0 1.00513-.45001 1.00513-1.00519s-.44995-1.00525-1.00513-1.00525h-7.8103c-.71777.65454-1.42139 1.32428-2.10864 2.01044z"/><path d="m38.7993 18.70042c0 .55517-.45005 1.00522-1.00523 1.00522h-4.1234c-.55278 0-1.00516-.45233-1.00516-1.0052s.45238-1.00524 1.00516-1.00524h4.1234c.55517 0 1.00523.45005 1.00523 1.00522z"/><path d="m11.96871 88.97134h-6.30859c.27344.67627.55884 1.34583.85449 2.01044h5.4541c.55518 0 1.00513-.45001 1.00513-1.00519 0-.55524-.44995-1.00525-1.00513-1.00525z"/><path d="m16.48834 90.98174h-.94628c-.55517 0-1.00522-.45005-1.00522-1.00522 0-.55517.45005-1.00522 1.00522-1.00522h.94628c.55513 0 1.00515.45006 1.00515 1.0052v.00005c0 .55513-.45002 1.00519-1.00515 1.00519z"/><path d="m65.09715 37.6673c0-.55517.45006-1.00522 1.00522-1.00522h16.00727c.55296 0 1.00515.45237 1.00515 1.00524s-.45219 1.0052-1.00515 1.0052h-16.00727c-.55516 0-1.00522-.45005-1.00522-1.00522z"/><path d="m63.53582 37.6673c0 .55517-.45005 1.00522-1.00522 1.00522h-4.80804c-.55516 0-1.00522-.45005-1.00522-1.00522 0-.55516.45005-1.00522 1.00522-1.00522h4.80804c.55517.00001 1.00522.45006 1.00522 1.00522z"/><path d="m91.14414 94.35792c0-.55517.45005-1.00522 1.00522-1.00522l16.00727-.00001c.55296 0 1.00515.45237 1.00515 1.00524s-.45219 1.0052-1.00515 1.0052l-16.00727.00001c-.55517 0-1.00522-.45005-1.00522-1.00522z"/><path d="m89.58281 94.35792c0 .55517-.45005 1.00522-1.00522 1.00522h-4.80804c-.55517 0-1.00522-.45005-1.00522-1.00522 0-.55517.45005-1.00522 1.00522-1.00522h4.80804c.55517 0 1.00522.45005 1.00522 1.00522z"/><path d="m128.84502 69.3465c-.04004.68018-.09985 1.3501-.15991 2.00977h-9.88012c-.55981 0-1.01001-.44971-1.01001-1 0-.56006.4502-1.00977 1.01001-1.00977z"/><path d="m116.23539 70.35494c0 .55517-.45005 1.00523-1.00522 1.00523h-4.80804c-.55516 0-1.00522-.45005-1.00522-1.00522 0-.55517.45006-1.00522 1.00522-1.00522h4.80804c.55517 0 1.00522.45005 1.00522 1.00521z"/><path d="m25.88832 74.32275c0-.55517.45005-1.00522 1.00522-1.00522l16.00727-.00001c.55296 0 1.00515.45237 1.00515 1.00524s-.45219 1.0052-1.00515 1.0052l-16.00727.00001c-.55516 0-1.00522-.45005-1.00522-1.00522z"/><path d="m24.32699 74.32275c0 .55517-.45005 1.00522-1.00522 1.00522h-4.80804c-.55517 0-1.00522-.45005-1.00522-1.00522 0-.55517.45005-1.00522 1.00522-1.00522h4.80804c.55517.00001 1.00522.45006 1.00522 1.00522z"/><path d="m51.12353 118.63345h-8.95542c-.55517 0-1.00522.45005-1.00522 1.00522 0 .55517.45005 1.00522 1.00522 1.00522h8.95542c.55296 0 1.00533-.45238 1.00533-1.00524 0-.55287-.45237-1.0052-1.00533-1.0052z"/><path d="m11.23318 43.89803h9.75004c.55517 0 1.00525.45005 1.0053 1.00522.00004.55517-.44997 1.00522-1.00513 1.00522h-9.75004c-.55296 0-1.00518-.45237-1.00523-1.00524-.00005-.55288.45211-1.0052 1.00506-1.0052z"/><path d="m24.60107 44.90325c-.00004-.55517.44997-1.00522 1.00513-1.00522h1.0803c.55513 0 1.00518.45006 1.00523 1.0052.00004.55518-.44993 1.00524-1.00507 1.00524h-1.08029c-.55517 0-1.00525-.45005-1.0053-1.00522z"/><path d="m74.52655 115.78407 9.75004.00001c.55517 0 1.00526.45005 1.0053 1.00522.00004.55517-.44997 1.00522-1.00513 1.00522l-9.75005-.00001c-.55296 0-1.00518-.45237-1.00523-1.00524s.45211-1.0052 1.00507-1.0052z"/><path d="m87.89444 116.78929c-.00005-.55517.44997-1.00522 1.00513-1.00522h1.08029c.55513 0 1.00519.45006 1.00523 1.0052.00005.55518-.44993 1.00524-1.00507 1.00524h-1.08029c-.55516 0-1.00524-.45005-1.00529-1.00522z"/><path d="m110.21481 37.6673c0-.55517.45005-1.00522 1.00522-1.00522h1.67143c.55517 0 1.00522.45005 1.00522 1.00522 0 .55516-.45005 1.00522-1.00522 1.00522h-1.67143c-.55517 0-1.00522-.45005-1.00522-1.00522z"/><path d="m117.56149 38.6725h5.77051c-.30518-.67554-.61621-1.3476-.94409-2.01044h-4.82642c-.55518 0-1.00537.45007-1.00537 1.00525s.45019 1.00519 1.00537 1.00519z"/></g><g fill="#e53946"><path d="m95.78059 29.0327v75.42998c0 3.17703-2.57549 5.75253-5.75253 5.75253h-52.59336c-3.17703 0-5.75253-2.5755-5.75253-5.75253v-75.42998c0-3.17703 2.5755-5.75253 5.75253-5.75253h52.59335c3.17704 0 5.75254 2.57549 5.75254 5.75253z"/><g><path d="m86.452 76.952h8.094v5.499h-8.094z" transform="matrix(-.362 -.932 .932 -.362 48.972 192.917)"/><path d="m101.09978 52.27261c3.96358 10.20434-1.09058 21.67838-11.29491 25.64194-10.20433 3.96358-21.67837-1.09057-25.64194-11.29491-3.95903-10.19263 1.09512-21.66667 11.29945-25.63024s21.67837 1.09057 25.6374 11.28321z"/><path d="m96.3386 54.12368c2.94164 7.57332-.80939 16.08897-8.38271 19.03061s-16.08897-.80939-19.0306-8.38271c-2.93826-7.56464.81276-16.08029 8.38608-19.02192s16.08897.80939 19.02723 8.37402z"/><path d="m96.32616 80.8948.80443 2.07101-9.32246 3.62104-.80442-2.071c-.26466-.68136.07629-1.45537.75764-1.72002l6.84481-2.65867c.68814-.26729 1.45514.07575 1.72.75764z"/><path d="m102.9772 98.01811-5.84662-15.0523-9.32246 3.62104 5.84662 15.0523c.99992 2.57433 3.89742 3.85063 6.47175 2.85071l.00001-.00001c2.57432-.99991 3.85063-3.89741 2.8507-6.47174z"/></g></g><g><g><g fill="#fff"><path d="m93.12012 27.28499v75.42999c0 3.17703-2.57549 5.75253-5.75253 5.75253h-52.59335c-3.17703 0-5.75253-2.57549-5.75253-5.75253v-75.42999c0-3.17703 2.57549-5.75253 5.75253-5.75253h52.59335c3.17703 0 5.75253 2.57549 5.75253 5.75253z"/><path d="m47.25384 25.50597c0 .52002-.42993.94019-.94995.94019h-6.62989c-.52002 0-.94995-.42017-.94995-.94019 0-.52979.42993-.94995.94995-.94995h6.62988c.52003 0 .94996.42017.94996.94995z"/><path d="m64.62395 25.50597c0 .52002-.42993.94019-.94995.94019h-13.19018c-.52002 0-.94995-.42017-.94995-.94019 0-.52979.42993-.94995.94995-.94995h13.19018c.52002 0 .94995.42017.94995.94995z"/><path d="m32.67026 40.48308c-.52002 0-.94018-.42993-.94018-.94995v-6.62988c0-.52002.42016-.94995.94018-.94995.52979 0 .94995.42993.94995.94995v6.62988c0 .52002-.42017.94995-.94995.94995z"/><path d="m32.67026 57.8532c-.52002 0-.94018-.42993-.94018-.94995v-13.19019c0-.52002.42016-.94995.94018-.94995.52979 0 .94995.42993.94995.94995v13.19019c0 .52002-.42017.94995-.94995.94995z"/></g><path d="m93.12395 27.286v75.43018c0 3.17993-2.58008 5.75-5.76001 5.75h-52.59008c-2.6499 0-4.86987-1.78003-5.52978-4.21021.48975.15015 1.00977.22021 1.53979.22021h52.59009c3.17993 0 5.75-2.58008 5.75-5.75v-75.43017c0-.52979-.07007-1.0498-.21997-1.54004 2.42993.66016 4.21996 2.88013 4.21996 5.53003z" fill="#ededed"/><g fill="#ededed"><path d="m84.33572 90.22071c0 .61134-.24715 1.1675-.6524 1.56589-.40527.40527-.95456.65241-1.56589.65241h-42.09302c-1.21562 0-2.2183-.9958-2.2183-2.2183 0-.61116.25419-1.16062.65241-1.55901.40526-.4051.9616-.65241 1.56589-.65241h42.09302c1.21562 0 2.21829.99581 2.21829 2.21142z"/><path d="m84.33572 79.12933c0 .61133-.24715 1.1675-.6524 1.56589-.40527.40526-.95456.6524-1.56589.6524h-42.09302c-1.21562 0-2.2183-.9958-2.2183-2.21829 0-.61116.25419-1.16062.65241-1.55901.40526-.40509.9616-.65241 1.56589-.65241h42.09302c1.21562 0 2.21829.9958 2.21829 2.21142z"/><path d="m84.33572 68.03796c0 .61133-.24715 1.1675-.6524 1.56588-.40527.40527-.95456.65241-1.56589.65241h-42.09302c-1.21562 0-2.2183-.9958-2.2183-2.21829 0-.61117.25419-1.16063.65241-1.55901.40526-.4051.9616-.65241 1.56589-.65241h42.09302c1.21562-.00001 2.21829.99579 2.21829 2.21142z"/><path d="m84.33572 56.94657c0 .61133-.24715 1.1675-.6524 1.56589-.40527.40526-.95456.65241-1.56589.65241h-42.09302c-1.21562 0-2.2183-.9958-2.2183-2.2183 0-.61116.25419-1.16062.65241-1.55901.40526-.40509.9616-.65241 1.56589-.65241h42.09302c1.21562 0 2.21829.9958 2.21829 2.21142z"/><path d="m84.33572 45.85519c0 .61133-.24715 1.1675-.6524 1.56588-.40527.40526-.95456.65241-1.56589.65241h-42.09302c-1.21562 0-2.2183-.9958-2.2183-2.2183 0-.61116.25419-1.16063.65241-1.55901.40526-.40509.9616-.65241 1.56589-.65241h42.09302c1.21562.00001 2.21829.99581 2.21829 2.21143z"/></g></g><g><g><path d="m84.113 76.952h8.094v5.499h-8.094z" fill="#386384" transform="matrix(-.362 -.932 .932 -.362 45.785 190.737)"/><path d="m98.76025 52.27261c3.96358 10.20434-1.09057 21.67838-11.29491 25.64194-10.20434 3.96358-21.67837-1.09057-25.64195-11.29491-3.95903-10.19264 1.09512-21.66667 11.29945-25.63025s21.67838 1.09058 25.63741 11.28322z" fill="#4a749b"/><path d="m87.46094 77.91613c-7.83008 3.04004-16.40991.77002-21.76001-5.07007 5.38013 4.92993 13.29004 6.67993 20.55005 3.8501 10.19995-3.96021 15.26001-15.42993 11.30005-25.64014-.91016-2.32983-2.19995-4.38989-3.79004-6.13989 2.13989 1.97998 3.87988 4.45996 5 7.35986 3.95996 10.2002-1.09009 21.67017-11.30005 25.64014z" fill="#386384"/><path d="m93.99906 54.12368c2.94164 7.57332-.80939 16.08897-8.38271 19.03061s-16.08897-.80939-19.0306-8.38271c-2.93827-7.56464.81276-16.08029 8.38608-19.02192s16.08898.80939 19.02723 8.37402z" fill="#fff"/><path d="m93.98663 80.8948.80443 2.07101-9.32247 3.62104-.80442-2.071c-.26465-.68136.07629-1.45537.75764-1.72002l6.84482-2.65867c.68814-.26729 1.45513.07575 1.72.75764z" fill="#fad553"/><path d="m100.63767 98.01811-5.84662-15.0523-9.32247 3.62104 5.84663 15.0523c.99992 2.57433 3.89742 3.85063 6.47174 2.85071l.00002-.00001c2.57432-.99991 3.85063-3.89741 2.8507-6.47174z" fill="#168de2"/><path d="m100.98096 99.82604c0 2-1.20996 3.89014-3.18994 4.65991-2.2002.8501-4.62012.06006-5.92017-1.78979 1.32007.92993 3.08008 1.20996 4.69995.57983 1.98022-.77002 3.19019-2.65991 3.19019-4.65991 0-.59985-.11011-1.20996-.34009-1.81006l-5.27002-13.58984.64014-.25 5.84985 15.05005c.22998.59985.34009 1.20996.34009 1.80981z" fill="#2e6bce"/></g><g><g fill="#66b071"><path d="m82.25329 64.84682v1.84009c0 .28003-.11011.54004-.31006.75-.20996.19995-.46997.31006-.75.31006h-1.80005c-.27979 0-.53979-.11011-.75-.31006-.19995-.2002-.30981-.45996-.30981-.75v-1.84009c0-.28003.10986-.54004.32007-.75.19995-.19995.45996-.31005.73975-.31005h1.80005c.28003 0 .54004.11011.75.31005.19994.20996.31005.46997.31005.75z"/><path d="m78.75329 62.22695c-.20996-.20996-.31006-.47021-.31006-.75v-9.26001c0-.28003.1001-.54004.31006-.75.20996-.19995.46997-.31006.75-.31006h1.58008c.29004 0 .55005.11011.75.31006.20996.20996.32007.46997.32007.75v9.26001c0 .27979-.11011.54004-.32007.75-.19995.19995-.45996.30981-.75.30981h-1.58008c-.29004 0-.55005-.10986-.75-.30981z"/></g></g></g></g></g></svg>