<svg id="Flat_Shadow" height="512" viewBox="0 0 32 32" width="512" xmlns="http://www.w3.org/2000/svg" data-name="Flat Shadow"><path d="m20 12h9a0 0 0 0 1 0 0 4 4 0 0 1 -4 4h-5a0 0 0 0 1 0 0v-4a0 0 0 0 1 0 0z" fill="#e1e1e1"/><path d="m3 12h5a4 4 0 0 1 4 4 0 0 0 0 1 0 0h-9a0 0 0 0 1 0 0v-4a0 0 0 0 1 0 0z" fill="#e1e1e1" transform="matrix(-1 0 0 -1 15 28)"/><g fill="#b37336"><path d="m18 11h4a9.6567 9.6567 0 0 1 2.8284-6.8284l3.1716-3.1716a10 10 0 0 0 -10 10z"/><path d="m14 11h-4a9.6567 9.6567 0 0 0 -2.8284-6.8284l-3.1716-3.1716a10 10 0 0 1 10 10z"/><path d="m18 27.5c0 1.933-2 3.5-2 3.5s-2-1.567-2-3.5.8954-3.5 2-3.5 2 1.567 2 3.5z"/></g><path d="m16 24c-1.1046 0-2 1.567-2 3.5a3.2594 3.2594 0 0 0 .2708 1.2413 5.9085 5.9085 0 0 0 3.4584 0 3.2594 3.2594 0 0 0 .2708-1.2413c0-1.933-.8954-3.5-2-3.5z" fill="#9b602d"/><path d="m16 7a7.8077 7.8077 0 0 0 -7.5746 9.7014l1.362 5.4479a6.4 6.4 0 0 0 5.2126 4.7661l1-.9154 1 .9154a6.4 6.4 0 0 0 5.2126-4.7661l1.362-5.4479a7.8077 7.8077 0 0 0 -7.5746-9.7014z" fill="#f5f5f5"/><path d="m22.4105 10.3708a7.7339 7.7339 0 0 0 -4.4105-1.3708 7.8078 7.8078 0 0 0 -7.5747 9.7014l1.362 5.4479a6.378 6.378 0 0 0 .79 1.8356 6.4735 6.4735 0 0 0 2.4227.9281l1-.913 1 .9154a6.4 6.4 0 0 0 5.2126-4.7661l1.362-5.4479a7.7452 7.7452 0 0 0 -1.1641-6.3306z" fill="#f0f0f0"/><path d="m15 26.9154a5.9525 5.9525 0 0 0 2 0v-4.9154h-2z" fill="#444"/><path d="m13.5 20.5v1a2.5 2.5 0 0 0 5 0v-1z" fill="#b37336"/><circle cx="19" cy="15" fill="#444" r="1"/><circle cx="13" cy="15" fill="#444" r="1"/></svg>