<svg id="Flat_Shadow" height="512" viewBox="0 0 32 32" width="512" xmlns="http://www.w3.org/2000/svg" data-name="Flat Shadow"><path d="m9.7437 4.375c1.5838 2.2621.41 5.8165.41 5.8165s-3.7415-.113-5.3254-2.375-.41-5.8165-.41-5.8165 3.7417.113 5.3254 2.375z" fill="#e1e1e1"/><path d="m8.5537 7.9058a3.8138 3.8138 0 0 1 -2.0859-1.2364 3.8229 3.8229 0 0 1 -.4492-2.3842 3.82 3.82 0 0 1 2.0859 1.2363 3.8244 3.8244 0 0 1 .4492 2.3843z" fill="#e6e6e6"/><path d="m22.2563 4.375c-1.5838 2.2621-.41 5.8165-.41 5.8165s3.7415-.113 5.3254-2.375.41-5.8165.41-5.8165-3.7417.113-5.3254 2.375z" fill="#e1e1e1"/><path d="m23.4463 7.9058a3.8222 3.8222 0 0 1 .4492-2.3838 3.8113 3.8113 0 0 1 2.0859-1.2373 3.8121 3.8121 0 0 1 -.4492 2.3842 3.8144 3.8144 0 0 1 -2.0859 1.2369z" fill="#e6e6e6"/><path d="m21.5 27v-.0111a27.9347 27.9347 0 0 1 2.4725-12.2331 5.137 5.137 0 0 0 .5275-2.2558c0-3.59-3.8056-6.5-8.5-6.5s-8.5 2.91-8.5 6.5a5.137 5.137 0 0 0 .5275 2.2558 27.9347 27.9347 0 0 1 2.4725 12.2331v.0111z" fill="#f5f5f5"/><path d="m21.5 27v-.0111a27.9345 27.9345 0 0 1 2.4725-12.2331 5.1374 5.1374 0 0 0 .5275-2.2558 5.262 5.262 0 0 0 -.8809-2.8682 10.0715 10.0715 0 0 0 -5.6191-1.6318c-4.6944 0-8.5 2.91-8.5 6.5a5.1374 5.1374 0 0 0 .5275 2.2558 26.45 26.45 0 0 1 2.4225 10.2449z" fill="#f0f0f0"/><circle cx="13" cy="14" fill="#444" r="1"/><circle cx="19" cy="14" fill="#444" r="1"/><path d="m18.9993 7.064a1.7948 1.7948 0 0 1 -.8367 1.5952 4.374 4.374 0 0 0 -2.0872 2.8656c-.0537.2892-.0754.4752-.0754.4752s-3-3.3431-3-5a3 3 0 1 1 5.9993.064z" fill="#c28f5e"/><path d="m15 9a3.0032 3.0032 0 0 1 3.6191-2.938c.0836.0167.1611.0485.2418.0724a2.9927 2.9927 0 0 0 -5.8609.8656c0 1.6569 3 5 3 5s.0217-.186.0754-.4752l.0049-.0155a5.5187 5.5187 0 0 1 -1.0803-2.5093z" fill="#cea57e"/><rect fill="#cea57e" height="6" rx="3" width="11" x="10.5" y="24"/><path d="m21.5 27a3 3 0 0 0 -3-3h-3a3 3 0 0 0 0 6h3a3 3 0 0 0 3-3z" fill="#c28f5e"/><g fill="#444"><circle cx="14.167" cy="27" r="1"/><circle cx="17.833" cy="27" r="1"/></g></svg>