<?xml version="1.0" encoding="utf-8"?>
<svg xml:space="preserve" viewBox="0 0 100 100" y="0" x="0" xmlns="http://www.w3.org/2000/svg" id="圖層_1" version="1.1" style="height: 100%; width: 100%; background: none; shape-rendering: auto;" width="212px" height="212px"><g class="ldl-scale" style="transform-origin: 50% 50%; transform: rotate(0deg) scale(1, 1);"><g class="ldl-ani"><g class="ldl-layer"><g class="ldl-ani" style="transform-origin: 50px 50px; transform: scale(0.91); animation: 1.33333s linear -0.722222s infinite normal forwards running breath-07594a06-2d34-4160-a211-a4fc6be7a5b8;"><path d="M60.27 43.674l-9.318 17.608c-.365.975-1.54.975-1.905 0L39.73 43.674C32.473 47.259 27.5 54.505 27.5 62.88v14.467c0 2.984 2.52 5.403 5.628 5.403h33.745c3.108 0 5.628-2.419 5.628-5.403V62.88c-.001-8.375-4.974-15.621-12.231-19.206z" style="fill: rgb(0, 0, 0);"></path></g></g><g class="ldl-layer"><g class="ldl-ani" style="transform-origin: 50px 50px; transform: scale(0.91); animation: 1.33333s linear -0.777778s infinite normal forwards running breath-07594a06-2d34-4160-a211-a4fc6be7a5b8;"><path fill="#ccc" d="M50.953 61.282l9.318-17.608c-3.081-1.522-6.567-2.397-10.27-2.397s-7.189.875-10.27 2.397l9.318 17.608c.363.975 1.539.975 1.904 0z" style="fill: rgb(204, 204, 204);"></path></g></g><g class="ldl-layer"><g class="ldl-ani" style="transform-origin: 50px 50px; transform: scale(0.91); animation: 1.33333s linear -0.833333s infinite normal forwards running breath-07594a06-2d34-4160-a211-a4fc6be7a5b8;"><circle fill="#c7b299" r="14.513" cy="31.763" cx="50" style="fill: rgb(199, 178, 153);"></circle></g></g><g class="ldl-layer"><g class="ldl-ani" style="transform-origin: 50px 50px; transform: scale(0.91); animation: 1.33333s linear -0.888889s infinite normal forwards running breath-07594a06-2d34-4160-a211-a4fc6be7a5b8;"><path stroke-miterlimit="10" stroke="#754c24" fill="none" d="M40.917 30.25l.139 1.246a1.55 1.55 0 0 0 1.541 1.379h3.808c.79 0 1.453-.594 1.541-1.379l.139-1.246" style="stroke: rgb(117, 76, 36);"></path></g></g><g class="ldl-layer"><g class="ldl-ani" style="transform-origin: 50px 50px; transform: scale(0.91); animation: 1.33333s linear -0.944444s infinite normal forwards running breath-07594a06-2d34-4160-a211-a4fc6be7a5b8;"><path stroke-miterlimit="10" stroke="#754c24" fill="none" d="M48.083 30.25l.1-.904a1.55 1.55 0 0 0-1.541-1.721h-4.286a1.55 1.55 0 0 0-1.541 1.721l.1.904" style="stroke: rgb(117, 76, 36);"></path></g></g><g class="ldl-layer"><g class="ldl-ani" style="transform-origin: 50px 50px; transform: scale(0.91); animation: 1.33333s linear -1s infinite normal forwards running breath-07594a06-2d34-4160-a211-a4fc6be7a5b8;"><path stroke-miterlimit="10" stroke="#754c24" fill="none" d="M59.083 30.25l.1-.904a1.55 1.55 0 0 0-1.541-1.721h-4.286a1.55 1.55 0 0 0-1.541 1.721l.1.904" style="stroke: rgb(117, 76, 36);"></path></g></g><g class="ldl-layer"><g class="ldl-ani" style="transform-origin: 50px 50px; transform: scale(0.91); animation: 1.33333s linear -1.05556s infinite normal forwards running breath-07594a06-2d34-4160-a211-a4fc6be7a5b8;"><path stroke-miterlimit="10" stroke="#754c24" fill="none" d="M51.917 30.25l.139 1.246a1.55 1.55 0 0 0 1.541 1.379h3.808c.79 0 1.453-.594 1.541-1.379l.139-1.246" style="stroke: rgb(117, 76, 36);"></path></g></g><g class="ldl-layer"><g class="ldl-ani" style="transform-origin: 50px 50px; transform: scale(0.91); animation: 1.33333s linear -1.11111s infinite normal forwards running breath-07594a06-2d34-4160-a211-a4fc6be7a5b8;"><path d="M63 30.25h-3.917" stroke-miterlimit="10" stroke="#754c24" fill="none" style="stroke: rgb(117, 76, 36);"></path></g></g><g class="ldl-layer"><g class="ldl-ani" style="transform-origin: 50px 50px; transform: scale(0.91); animation: 1.33333s linear -1.16667s infinite normal forwards running breath-07594a06-2d34-4160-a211-a4fc6be7a5b8;"><path d="M40.917 30.25h-3.542" stroke-miterlimit="10" stroke="#754c24" fill="none" style="stroke: rgb(117, 76, 36);"></path></g></g><g class="ldl-layer"><g class="ldl-ani" style="transform-origin: 50px 50px; transform: scale(0.91); animation: 1.33333s linear -1.22222s infinite normal forwards running breath-07594a06-2d34-4160-a211-a4fc6be7a5b8;"><path d="M51.917 30.25h-3.834" stroke-miterlimit="10" stroke="#754c24" fill="none" style="stroke: rgb(117, 76, 36);"></path></g></g><g class="ldl-layer"><g class="ldl-ani" style="transform-origin: 50px 50px; transform: scale(0.91); animation: 1.33333s linear -1.27778s infinite normal forwards running breath-07594a06-2d34-4160-a211-a4fc6be7a5b8;"><path fill="#c7b299" d="M54.524 77.102l-10.038-4.226a1.994 1.994 0 0 1-1.064-2.61l5.709-13.561a1.994 1.994 0 0 1 2.61-1.064l10.038 4.226a1.994 1.994 0 0 1 1.064 2.61l-5.709 13.561a1.992 1.992 0 0 1-2.61 1.064z" style="fill: rgb(199, 178, 153);"></path></g></g><g class="ldl-layer"><g class="ldl-ani"><g><g class="ldl-layer"><g class="ldl-ani" style="transform-origin: 50px 50px; transform: scale(0.91); animation: 1.33333s linear -1.33333s infinite normal forwards running breath-07594a06-2d34-4160-a211-a4fc6be7a5b8;"><path fill="#754c24" d="M36.656 70.684L63 58 38.094 73.316a1.5 1.5 0 1 1-1.438-2.632z" style="fill: rgb(117, 76, 36);"></path></g></g></g></g></g><metadata xmlns:d="https://loading.io/stock/"><d:name>teacher</d:name><d:tags>professor,trainer,instructor,speaker,lecturer,teacher,people</d:tags><d:license>pro</d:license><d:slug>ss544w</d:slug></metadata></g></g><style id="breath-07594a06-2d34-4160-a211-a4fc6be7a5b8" data-anikit="">@keyframes breath-07594a06-2d34-4160-a211-a4fc6be7a5b8
{
  0% {
    animation-timing-function: cubic-bezier(0.9647,0.2413,-0.0705,0.7911);
    transform: scale(0.9099999999999999);
  }
  51% {
    animation-timing-function: cubic-bezier(0.9226,0.2631,-0.0308,0.7628);
    transform: scale(1.02994);
  }
  100% {
    transform: scale(0.9099999999999999);
  }
}</style><!-- [ldio] generated by https://loading.io/ --></svg>