<svg id="Flat_Shadow" height="512" viewBox="0 0 32 32" width="512" xmlns="http://www.w3.org/2000/svg" data-name="Flat Shadow"><circle cx="25.5" cy="13.5" fill="#b37336" r="5.5"/><circle cx="25.5" cy="13.5" fill="#9b602d" r="3.5"/><circle cx="6.5" cy="13.5" fill="#b37336" r="5.5"/><circle cx="6.5" cy="13.5" fill="#9b602d" r="3.5"/><path d="m25 11a9 9 0 0 0 -18 0l9 2z" fill="#c28f5e"/><path d="m24.2921 14.5044a8.9709 8.9709 0 0 0 .7079-3.5044 4.5 4.5 0 0 0 -9 0 4.5 4.5 0 0 0 -9 0 8.9709 8.9709 0 0 0 .7079 3.5044 8.1046 8.1046 0 0 0 -3.7079 6.4956c0 4.9705 5.3726 9 12 9s12-4.0295 12-9a8.1046 8.1046 0 0 0 -3.7079-6.4956z" fill="#ffe99d"/><path d="m24.5206 14.6853a7.2543 7.2543 0 0 1 1.4794 4.3147c0 4.9705-5.3726 9-12 9a14.2016 14.2016 0 0 1 -8.5047-2.6521c2.0447 2.7728 5.9807 4.6521 10.5047 4.6521 6.6274 0 12-4.0295 12-9a8.0138 8.0138 0 0 0 -3.4794-6.3147z" fill="#f9df93"/><g fill="#444"><circle cx="20" cy="13" r="1"/><circle cx="12" cy="13" r="1"/><path d="m16 21.414-3.414-3.414 1.414-1.414 2 2 2-2 1.414 1.414z"/><path d="m15 19h2v6h-2z"/></g></svg>