<?xml version="1.0" encoding="utf-8"?>
<svg xml:space="preserve" viewBox="0 0 100 100" y="0" x="0" xmlns="http://www.w3.org/2000/svg" id="圖層_1" version="1.1" style="height: 100%; width: 100%; background: none; shape-rendering: auto;" width="212px" height="212px"><g class="ldl-scale" style="transform-origin: 50% 50%; transform: rotate(0deg) scale(1, 1);"><g class="ldl-ani"><g class="ldl-layer"><g class="ldl-ani" style="transform: scale(0.91); transform-origin: 50px 50px; animation: 1.11111s linear -0.592593s infinite normal forwards running breath-0aa3d752-a928-4ab0-b02d-f60ed9c22b1b;"><path fill="#e0e0e0" d="M59.101 61.208H40.899a8.528 8.528 0 0 1-8.528-8.528V28.227c0-9.067 7.35-16.417 16.417-16.417h2.425c9.067 0 16.417 7.35 16.417 16.417V52.68a8.53 8.53 0 0 1-8.529 8.528z" style="fill: rgb(5, 5, 5);"></path></g></g><g class="ldl-layer"><g class="ldl-ani" style="transform: scale(0.91); transform-origin: 50px 50px; animation: 1.11111s linear -0.62963s infinite normal forwards running breath-0aa3d752-a928-4ab0-b02d-f60ed9c22b1b;"><path fill="#66503a" d="M57.347 49.227H42.653c-4.387 0-7.943-4.731-7.943-10.566l-1.127-7.036c0-9.067 7.35-16.417 16.417-16.417 9.067 0 16.417 7.35 16.417 16.417l-1.127 7.036c0 5.836-3.556 10.566-7.943 10.566z" style="fill: rgb(15, 15, 15);"></path></g></g><g class="ldl-layer"><g class="ldl-ani" style="transform: scale(0.91); transform-origin: 50px 50px; animation: 1.11111s linear -0.666667s infinite normal forwards running breath-0aa3d752-a928-4ab0-b02d-f60ed9c22b1b;"><path fill="#e0e0e0" d="M27.5 79.388c0 2.984 2.52 5.403 5.628 5.403h33.745c3.108 0 5.628-2.419 5.628-5.403V64.921c0-3.103-.686-6.049-1.914-8.713H29.414a20.745 20.745 0 0 0-1.914 8.713v14.467z" style="fill: rgb(5, 5, 5);"></path></g></g><g class="ldl-layer"><g class="ldl-ani" style="transform: scale(0.91); transform-origin: 50px 50px; animation: 1.11111s linear -0.703704s infinite normal forwards running breath-0aa3d752-a928-4ab0-b02d-f60ed9c22b1b;"><path fill="#f5e6c8" d="M60.27 45.716A23.131 23.131 0 0 0 50 43.319c-3.704 0-7.189.875-10.27 2.397-4.568 2.257-8.228 5.966-10.315 10.493h41.171c-2.088-4.527-5.748-8.237-10.316-10.493z" style="fill: rgb(245, 230, 200);"></path></g></g><g class="ldl-layer"><g class="ldl-ani" style="transform: scale(0.91); transform-origin: 50px 50px; animation: 1.11111s linear -0.740741s infinite normal forwards running breath-0aa3d752-a928-4ab0-b02d-f60ed9c22b1b;"><circle fill="#f5e6c8" r="14.513" cy="33.805" cx="50" style="fill: rgb(245, 230, 200);"></circle></g></g><g class="ldl-layer"><g class="ldl-ani" style="transform: scale(0.91); transform-origin: 50px 50px; animation: 1.11111s linear -0.777778s infinite normal forwards running breath-0aa3d752-a928-4ab0-b02d-f60ed9c22b1b;"><path fill="#66503a" d="M65.22 33.638c0-6.374-3.921-11.825-9.48-14.092-.009.055-.023.108-.033.163a15.156 15.156 0 0 0-7.263-1.036c-.007-.058-.018-.115-.025-.174-7.476.771-13.329 6.957-13.612 14.567 1.373.36 2.806.571 4.292.571 5.224 0 9.889-2.377 12.988-6.102.025.031.047.064.073.095l.073-.095c3.098 3.727 7.763 6.103 12.987 6.103z" style="fill: rgb(15, 15, 15);"></path></g></g><g class="ldl-layer"><g class="ldl-ani" style="transform: scale(0.91); transform-origin: 50px 50px; animation: 1.11111s linear -0.814815s infinite normal forwards running breath-0aa3d752-a928-4ab0-b02d-f60ed9c22b1b;"><path stroke-miterlimit="10" stroke-width="1.842" stroke="#fff" fill="none" d="M62.101 46.733c-3.008 5.186-7.316 8.434-12.101 8.434-4.752 0-9.034-3.203-12.038-8.327" style="stroke: rgb(255, 255, 255);"></path></g></g><g class="ldl-layer"><g class="ldl-ani" style="transform: scale(0.91); transform-origin: 50px 50px; animation: 1.11111s linear -0.851852s infinite normal forwards running breath-0aa3d752-a928-4ab0-b02d-f60ed9c22b1b;"><circle stroke-miterlimit="10" stroke-width="1.5" stroke="#fff" fill="#f73d7e" r="2.875" cy="55.042" cx="50" style="stroke: rgb(255, 255, 255); fill: rgb(247, 61, 126);"></circle></g></g><g class="ldl-layer"><g class="ldl-ani" style="transform: scale(0.91); transform-origin: 50px 50px; animation: 1.11111s linear -0.888889s infinite normal forwards running breath-0aa3d752-a928-4ab0-b02d-f60ed9c22b1b;"><path fill="#fff" d="M38.186 24.086c3.699-1.317 7.664-2.071 11.814-2.071s8.116.754 11.814 2.071a18.08 18.08 0 0 0-7.04-3.766c.001-.016.009-.029.009-.045 0-.88-.714-1.594-1.594-1.594-.141 0-.268.046-.399.08-.54-.993-1.58-1.675-2.79-1.675s-2.25.682-2.79 1.675c-.131-.035-.257-.08-.399-.08-.88 0-1.594.714-1.594 1.594 0 .016.009.029.009.045a18.074 18.074 0 0 0-7.04 3.766z" style="fill: rgb(255, 255, 255);"></path></g></g><g class="ldl-layer"><g class="ldl-ani"><g><g class="ldl-layer"><g class="ldl-ani" style="transform: scale(0.91); transform-origin: 50px 50px; animation: 1.11111s linear -0.925926s infinite normal forwards running breath-0aa3d752-a928-4ab0-b02d-f60ed9c22b1b;"><path fill="#e15c65" d="M38.917 23.232c1.177.249 2.211 1.066 2.684 2.27s.273 2.506-.42 3.49a3.703 3.703 0 0 1-2.264-5.76z" style="fill: rgb(206, 55, 66);"></path></g></g><g class="ldl-layer"><g class="ldl-ani" style="transform: scale(0.91); transform-origin: 50px 50px; animation: 1.11111s linear -0.962963s infinite normal forwards running breath-0aa3d752-a928-4ab0-b02d-f60ed9c22b1b;"><path fill="#e15b64" d="M37.326 33.833a3.7 3.7 0 0 1 .624-3.459 3.702 3.702 0 0 1 3.232-1.382 3.7 3.7 0 0 1-.624 3.459 3.702 3.702 0 0 1-3.232 1.382z" style="fill: rgb(225, 91, 100);"></path></g></g><g class="ldl-layer"><g class="ldl-ani" style="transform: scale(0.91); transform-origin: 50px 50px; animation: 1.11111s linear -1s infinite normal forwards running breath-0aa3d752-a928-4ab0-b02d-f60ed9c22b1b;"><path fill="#e15b64" d="M47.302 29.911a3.704 3.704 0 0 1-6.121-.918c.805-.895 2.029-1.382 3.308-1.19s2.306 1.016 2.813 2.108z" style="fill: rgb(225, 91, 100);"></path></g></g><g class="ldl-layer"><g class="ldl-ani" style="transform: scale(0.91); transform-origin: 50px 50px; animation: 1.11111s linear -1.03704s infinite normal forwards running breath-0aa3d752-a928-4ab0-b02d-f60ed9c22b1b;"><path fill="#f47e60" d="M45.037 24.151a3.705 3.705 0 0 1-3.856 4.841 3.7 3.7 0 0 1 .624-3.459 3.701 3.701 0 0 1 3.232-1.382z" style="fill: rgb(244, 126, 96);"></path></g></g><g class="ldl-layer"><g class="ldl-ani" style="transform: scale(0.91); transform-origin: 50px 50px; animation: 1.11111s linear -1.07407s infinite normal forwards running breath-0aa3d752-a928-4ab0-b02d-f60ed9c22b1b;"><path fill="#f47e60" d="M35.061 28.073a3.704 3.704 0 0 1 6.121.918 3.703 3.703 0 0 1-3.308 1.19 3.698 3.698 0 0 1-2.813-2.108z" style="fill: rgb(244, 126, 96);"></path></g></g><g class="ldl-layer"><g class="ldl-ani" style="transform: scale(0.91); transform-origin: 50px 50px; animation: 1.11111s linear -1.11111s infinite normal forwards running breath-0aa3d752-a928-4ab0-b02d-f60ed9c22b1b;"><path fill="#f47e60" d="M43.446 34.752a3.7 3.7 0 0 1-2.684-2.27 3.7 3.7 0 0 1 .42-3.49 3.703 3.703 0 0 1 2.264 5.76z" style="fill: rgb(244, 126, 96);"></path></g></g></g></g></g><metadata xmlns:d="https://loading.io/stock/">
<d:name>bride</d:name>
<d:tags>wedding,marry,love,engage,gown,ceremony,groom,bride,people</d:tags>
<d:license>by</d:license>
<d:slug>rz5uf0</d:slug>
</metadata></g></g><style id="breath-0aa3d752-a928-4ab0-b02d-f60ed9c22b1b" data-anikit="">@keyframes breath-0aa3d752-a928-4ab0-b02d-f60ed9c22b1b
{
  0% {
    animation-timing-function: cubic-bezier(0.9647,0.2413,-0.0705,0.7911);
    transform: scale(0.9099999999999999);
  }
  51% {
    animation-timing-function: cubic-bezier(0.9226,0.2631,-0.0308,0.7628);
    transform: scale(1.02994);
  }
  100% {
    transform: scale(0.9099999999999999);
  }
}</style><!-- [ldio] generated by https://loading.io/ --></svg>