<svg id="Layer_1" enable-background="new 0 0 130 130" height="512" viewBox="0 0 130 130" width="512" xmlns="http://www.w3.org/2000/svg"><g><g><g><g><circle cx="65" cy="65" fill="#dddce0" r="64"/></g></g></g><g><g><path d="m120.01719 57.24736h8.49902c-.07202-.59717-.13867-1.1958-.22729-1.78809h-8.27172c-.49146 0-.8938.40234-.8938.89404s.40233.89405.89379.89405z" fill="#c9c8ce"/><g><g><g fill="#c9c8ce"><path d="m108.60825 103.23174h7.71973c.43701-.58594.85425-1.18701 1.27148-1.78809h-8.99121c-.49121 0-.89355.40234-.89355.89404s.40233.89405.89355.89405z"/><path d="m102.79008 101.44366 2.36105.00001c.49168 0 .89395.40228.89395.89394 0 .49168-.40228.89395-.89395.89395h-2.36105c-.49168 0-.89395-.40228-.89395-.89395 0-.49167.40228-.89395.89395-.89395z"/><g><path d="m11.57628 82.86648-8.02954-.00049c.17383.59912.35083 1.19629.54175 1.78809l7.48779.00049c.4917 0 .89404-.4021.89404-.8938v-.00024c0-.49171-.40234-.89405-.89404-.89405z"/><circle cx="14.321" cy="83.761" r=".894"/></g></g></g><g><path d="m23.29284 19.64041c.4917 0 .89404-.40234.89404-.89404 0-.49146-.40234-.8938-.89404-.8938h-1.56372c-.63623.58423-1.26294 1.17847-1.87524 1.78784z" fill="#c9c8ce"/><g><g><path d="m41.72094 19.64044-14.88587-.00001c-.49167 0-.89395-.40228-.89395-.89395 0-.49167.40228-.89395.89395-.89395l14.88587.00001c.49167 0 .89395.40228.89395.89395 0 .49168-.40228.89395-.89395.89395z" fill="#c9c8ce"/></g></g></g><g><path d="m16.30847 23.48806h5.33398c.4917 0 .89404-.40234.89404-.89404 0-.4917-.40234-.8938-.89404-.8938h-3.76221c-.53711.58423-1.05664 1.18384-1.57177 1.78784z" fill="#c9c8ce"/><g><path d="m24.64248 21.70019 5.77253.00001c.49164 0 .89389.40225.89389.8939 0 .49164-.40225.8939-.8939.89389l-5.77253-.00001c-.49164 0-.8939-.40226-.8939-.8939.00001-.49164.40226-.89389.89391-.89389z" fill="#c9c8ce"/></g></g></g><g fill="#c9c8ce"><path d="m42.69538 109.16776c-.00006.49997-.40003.89983-.89003.89983-.50002-.00002-.90012-.39989-.90006-.89986.00006-.48996.40027-.89007.90029-.89006.49 0 .88986.40013.8898.89009z"/><path d="m44.8053 110.06756 6.59129.00021c.49431.00002.89503-.40069.89503-.895v-.00001c0-.49429-.40071-.895-.895-.895h-6.59084c-.49023 0-.90039.40015-.90039.89014.00001.48975.41016.89966.89991.89966z"/><path d="m98.98125 70.82607c-.00007.49997-.40003.89983-.89004.89983-.50002-.00001-.90012-.39989-.90005-.89986.00006-.48996.40027-.89007.90028-.89006.49-.00001.88987.40013.88981.89009z"/><path d="m101.09116 71.72586 6.59129.00022c.49431.00002.89503-.4007.89503-.895v-.00001c0-.49429-.4007-.895-.895-.895h-6.59084c-.49023 0-.90039.40015-.90039.89014.00001.48974.41017.89965.89991.89965z"/><path d="m49.87867 10.56158c-.00006.49997-.40003.89984-.89003.89983-.50002-.00001-.90012-.39989-.90006-.89986.00006-.48996.40027-.89007.90029-.89006.49 0 .88987.40013.8898.89009z"/><path d="m51.98859 11.46138 6.59129.00022c.49431.00002.89503-.4007.89503-.895 0-.4943-.40071-.895-.895-.895h-6.59084c-.49023 0-.90039.40015-.90039.89014.00001.48972.41017.89964.89991.89964z"/><g><path d="m29.4146 104.12183c-.00006.49997-.40003.89983-.89004.89983-.50002-.00001-.90012-.39989-.90006-.89986.00006-.48996.40027-.89007.90029-.89006.49001 0 .88988.40013.88981.89009z"/><path d="m31.52452 105.02163 12.5913.00022c.49431.00002.89503-.4007.89503-.895v-.00001c0-.49429-.40071-.895-.895-.895h-12.59084c-.49023 0-.90039.40015-.90039.89014 0 .48974.41016.89965.8999.89965z"/></g><path d="m92.97185 25.1121c-.00006.49997-.40003.89984-.89003.89983-.50002-.00001-.90012-.39989-.90006-.89986.00006-.48996.40028-.89007.90029-.89006.49 0 .88987.40013.8898.89009z"/><path d="m95.08177 26.0119 6.59129.00022c.49431.00002.89503-.4007.89503-.895 0-.4943-.40071-.895-.895-.895h-6.59084c-.49023 0-.90039.40015-.90039.89014.00001.48973.41017.89964.89991.89964z"/><g><path d="m79.69107 20.06617c-.00006.49997-.40002.89984-.89003.89983-.50002-.00001-.90012-.39989-.90006-.89986.00007-.48996.40028-.89007.90029-.89006.49001 0 .88987.40013.8898.89009z"/><path d="m81.80099 20.96597 12.59129.00022c.49431.00002.89503-.40069.89503-.895 0-.4943-.40071-.895-.895-.895h-12.59084c-.49023 0-.90039.40015-.90039.89014.00001.48973.41017.89964.89991.89964z"/></g><path d="m21.00326 63.3844c-.00006.49997-.40003.89984-.89004.89982-.50002-.00001-.90012-.39989-.90006-.89986.00006-.48996.40027-.89007.90029-.89006.49001.00002.88987.40014.88981.8901z"/><path d="m23.11318 64.2842 6.59129.00021c.49431.00002.89503-.4007.89503-.895 0-.4943-.40071-.895-.895-.895h-6.59084c-.49023 0-.90039.40014-.90039.89013.00001.48975.41016.89966.89991.89966z"/><g><path d="m7.72248 58.33847c-.00006.49997-.40003.89984-.89004.89983-.50002-.00001-.90012-.39989-.90006-.89986.00006-.48996.40027-.89007.90029-.89006.49001.00001.88988.40013.88981.89009z"/><path d="m9.8324 59.23827 12.5913.00021c.49431.00002.89503-.40069.89503-.895 0-.4943-.40071-.895-.895-.895h-12.59084c-.49023 0-.90039.40015-.90039.89014 0 .48974.41016.89965.8999.89965z"/></g></g></g></g><g><g><path d="m81.33763 85.4849c0 7.84937-6.35578 14.21964-14.20533 14.21964-7.84918 0-14.20497-6.37027-14.20497-14.21964 0-7.84945 6.35579-14.20506 14.20497-14.20506 7.84955.00001 14.20533 6.35561 14.20533 14.20506z" fill="#c9c8ce"/></g><g><path d="m43.88931 73.57667c-1.00584 0-2.01169-.38391-2.77951-1.15173-1.53564-1.535-1.53564-4.02402 0-5.55902 14.34289-14.34545 37.68592-14.34609 52.02881-.00064 1.53564 1.535 1.53564 4.02402 0 5.55902-1.53564 1.53564-4.02338 1.53564-5.55902 0-11.27801-11.278-29.6302-11.27992-40.91077.00064-.76782.76782-1.77367 1.15173-2.77951 1.15173z" fill="#c9c8ce"/></g><g><path d="m33.07071 62.75871c-1.00584 0-2.01169-.38391-2.77951-1.15173-1.53564-1.535-1.53564-4.02402 0-5.55966 20.3063-20.30502 53.34818-20.30566 73.65448-.00064 1.53564 1.53564 1.53564 4.02466 0 5.55966-1.53564 1.53564-4.02338 1.535-5.55902.00064-17.2414-17.24014-45.29246-17.24205-62.53643.00064-.76782.76718-1.77367 1.15109-2.77952 1.15109z" fill="#c9c8ce"/></g><g><path d="m23.34754 53.03554c-1.00584 0-2.01169-.38391-2.77951-1.15109-1.53564-1.53564-1.53564-4.02466 0-5.55966 12.4387-12.43933 28.9686-19.29021 46.5453-19.29021 17.5767-.00064 34.1066 6.85024 46.5453 19.28958 1.53564 1.535 1.53564 4.02402 0 5.55966-1.53564 1.53436-4.02338 1.535-5.55902-.00064-10.95425-10.9536-25.50957-16.98676-40.98627-16.98611-15.47671 0-30.03203 6.03251-40.98627 16.98676-.76783.7678-1.77368 1.15171-2.77953 1.15171z" fill="#c9c8ce"/></g></g><g><g><path d="m79.12453 82.73716c0 7.84937-6.35579 14.21963-14.20533 14.21963-7.84918 0-14.20497-6.37026-14.20497-14.21963 0-7.84946 6.35579-14.20506 14.20497-14.20506 7.84955 0 14.20533 6.3556 14.20533 14.20506z" fill="#4a749b"/></g><g><path d="m41.67621 70.82892c-1.00585 0-2.01169-.38391-2.77951-1.15173-1.53564-1.535-1.53564-4.02402 0-5.55903 14.3429-14.34545 37.68592-14.34609 52.02882-.00063 1.53564 1.535 1.53564 4.02402 0 5.55902-1.53564 1.53564-4.02338 1.53564-5.55902 0-11.27801-11.27801-29.6302-11.27993-40.91077.00064-.76783.76782-1.77367 1.15173-2.77952 1.15173z" fill="#4a749b"/></g><g><path d="m30.85762 60.01097c-1.00585 0-2.01169-.38391-2.77951-1.15173-1.53564-1.535-1.53564-4.02402 0-5.55966 20.3063-20.30502 53.34819-20.30566 73.65448-.00064 1.53564 1.53564 1.53564 4.02466 0 5.55966-1.53564 1.53564-4.02338 1.535-5.55902.00064-17.24142-17.24014-45.29247-17.24206-62.53644.00063-.76782.76719-1.77367 1.1511-2.77951 1.1511z" fill="#4a749b"/></g><g><path d="m21.13445 50.2878c-1.00585 0-2.01169-.38391-2.77951-1.15109-1.53564-1.53564-1.53564-4.02466 0-5.55966 12.4387-12.43933 28.9686-19.29022 46.5453-19.29022 17.5767-.00064 34.1066 6.85024 46.5453 19.28958 1.53564 1.535 1.53564 4.02402 0 5.55966-1.53564 1.53436-4.02338 1.535-5.55902-.00064-10.95426-10.95361-25.50958-16.98676-40.98629-16.98612-15.47671 0-30.03203 6.03251-40.98627 16.98675-.76782.76782-1.77367 1.15174-2.77951 1.15174z" fill="#4a749b"/></g></g><g><g><path d="m79.12247 82.73462c0 7.8546-6.35669 14.22356-14.19902 14.22356-4.44472 0-8.41494-2.04591-11.02082-5.23645 2.44772 2.03372 5.60183 3.25149 9.03601 3.25149 7.85452 0 14.21122-6.36896 14.21122-14.21136 0-3.4341-1.21777-6.58807-3.25134-9.03579 3.19039 2.60602 5.22395 6.56376 5.22395 11.00855z" fill="#386384"/></g><g><path d="m90.92284 69.68023c-1.53469 1.53439-4.01868 1.53439-5.55308 0-11.2765-11.27651-29.62829-11.2887-40.91699 0-.76705.7672-1.7657 1.1447-2.77654 1.1447-1.01054 0-2.00919-.3775-2.77654-1.1447-.3532-.35313-.60888-.74282-.80362-1.16908.51137.23138 1.04741.34101 1.59534.34101 1.01054 0 2.02138-.38969 2.78873-1.15689 11.27651-11.27651 29.628-11.27651 40.90451 0 1.53439 1.53439 4.03087 1.53439 5.56526 0 1.36404-1.36389 1.52221-3.49498.43823-5.01719.52385.45057 1.03522.9377 1.53469 1.43695 1.5341 1.5344 1.5341 4.0308.00001 5.5652z" fill="#386384"/></g><g><path d="m101.73644 58.85429c-1.5344 1.53439-4.03088 1.53439-5.56527 0-17.24343-17.23132-45.28857-17.23132-62.53201 0-.76735.7672-1.77789 1.15689-2.77654 1.15689-1.01084 0-2.02138-.38969-2.78873-1.15689-.3532-.35313-.62107-.74282-.80362-1.16901.49918.23138 1.0593.34093 1.60723.34093 1.01084 0 2.00949-.3775 2.77654-1.1447 17.24343-17.24351 45.30077-17.24351 62.5445 0 1.53439 1.5344 4.01838 1.5344 5.55307 0 1.40031-1.40038 1.52221-3.59242.3651-5.12681.54823.49932 1.08398 1.01077 1.61972 1.54659 1.53441 1.53439 1.53441 4.0186.00001 5.553z" fill="#386384"/></g><g><path d="m111.44199 49.13655c-1.53439 1.53439-4.01868 1.53439-5.55308 0-10.95988-10.95988-25.5121-16.98782-40.98983-16.98782s-30.02996 6.02795-40.98984 16.98782c-.76735.7672-1.7657 1.15689-2.77654 1.15689-.99865 0-2.00949-.38969-2.77654-1.15689-.3532-.35312-.62107-.75501-.80362-1.18127.51137.24357 1.0593.3532 1.60723.3532.99865 0 2.00949-.38969 2.77654-1.15689 10.94769-10.94769 25.5121-16.98782 40.98983-16.98782 15.46584 0 30.03025 6.04014 40.97794 16.98782 1.53439 1.5344 4.03087 1.5344 5.56526 0 1.4125-1.41257 1.52221-3.6168.34071-5.15112.54823.51144 1.09617 1.03507 1.63191 1.57089 1.53442 1.53439 1.53442 4.0308.00003 5.56519z" fill="#386384"/></g></g><g><path d="m106.16295 85.8753c0 11.01036-8.91681 19.92742-19.91373 19.92742-11.01053 0-19.92734-8.91706-19.92734-19.92742 0-10.99684 8.91681-19.9139 19.92734-19.9139 10.99692 0 19.91373 8.91706 19.91373 19.9139z" fill="#c9c8ce"/><path d="m104.09133 83.30321c0 11.01036-8.91681 19.92742-19.91373 19.92742-11.01053 0-19.92734-8.91706-19.92734-19.92742 0-10.99684 8.91681-19.9139 19.92734-19.9139 10.99692 0 19.91373 8.91706 19.91373 19.9139z" fill="#f34b50"/><g><path d="m89.73441 67.82667c-.05469 0-.11035-.00879-.16504-.02783-2.8125-.98047-5.91309-1.16992-8.82715-.54883-.26172.06055-.53516-.11377-.59375-.38428-.05762-.27002.11523-.53564.38477-.59326 3.09375-.65918 6.37988-.45947 9.36621.58203.26074.09082.39844.37598.30664.63672-.07129.20654-.26465.33545-.47168.33545z" fill="#ff6c77"/></g><g><path d="m68.77054 76.79835c-.07031 0-.14063-.01465-.20801-.04541-.25098-.11475-.36133-.41113-.24707-.6626 1.60254-3.50488 4.36816-6.42334 7.78809-8.21777.24316-.12695.54688-.03467.6748.21045.12891.24463.03418.54688-.20996.67529-3.22461 1.69189-5.83203 4.44336-7.34277 7.74805-.08399.18359-.26563.29199-.45508.29199z" fill="#ff6c77"/></g><g><path d="m67.25003 83.80323c-.27637 0-.5-.22363-.5-.5 0-1.78711.27148-3.55225.80762-5.24609.08301-.2627.36523-.41064.62695-.32568.26367.08301.40918.36426.32617.62744-.50488 1.59619-.76074 3.25977-.76074 4.94434 0 .27636-.22363.49999-.5.49999z" fill="#ff6c77"/></g><path d="m104.09245 83.30157c0 11.01424-8.92181 19.92556-19.91528 19.92556-5.95473 0-11.29541-2.6026-14.93906-6.73551 3.51885 3.14391 8.15144 5.04903 13.24203 5.04903 11.00389 0 19.91527-8.92175 19.91527-19.92557 0-5.04903-1.88435-9.67126-4.98663-13.17957 4.10164 3.63324 6.68367 8.95295 6.68367 14.86606z" fill="#d13044"/><g fill="#fff"><path d="m92.52725 78.54793-13.1185 13.1185c-.99257.99257-2.60184.99257-3.59441 0-.99257-.99258-.99257-2.60184 0-3.59441l13.1185-13.1185c.99257-.99258 2.60184-.99258 3.59441 0 .99258.99256.99258 2.60184 0 3.59441z"/><path d="m79.40875 74.95351 13.1185 13.1185c.99258.99257.99258 2.60184 0 3.59441-.99257.99257-2.60184.99257-3.59441 0l-13.1185-13.1185c-.99257-.99257-.99257-2.60184 0-3.59441.99258-.99257 2.60184-.99257 3.59441 0z"/></g></g><g><path d="m48.17288 28.73194c-.2207 0-.42285-.14648-.48242-.36963-.07227-.2666.08496-.54102.35156-.61328 5.45313-1.47363 11.125-2.22119 16.8584-2.22119h.00586c5.15625 0 10.2793.60693 15.22559 1.80469.26855.06494.43359.33496.36914.60352-.06445.26807-.33398.43848-.60352.36816-4.87012-1.17871-9.91406-1.77637-14.99121-1.77637-.00195 0-.00391 0-.00586 0-5.64551 0-11.2295.73584-16.59668 2.18701-.04395.01172-.08789.01709-.13086.01709z" fill="#6894af"/></g><g><path d="m30.43851 36.66114c-.16309 0-.32324-.08008-.41895-.22705-.15039-.23145-.08496-.54102.14551-.69189 4.21777-2.74902 8.77148-4.98681 13.53613-6.65039.26172-.09131.5459.04639.63672.30713.0918.26074-.0459.5459-.30664.63721-4.68848 1.63672-9.16992 3.83838-13.31933 6.54394-.08497.05468-.17969.08105-.27344.08105z" fill="#6894af"/></g><g><path d="m21.14749 44.07715c-.13086 0-.26074-.05078-.35938-.15234-.19238-.19824-.18652-.51465.01172-.70703 1.94043-1.87793 4.0166-3.64404 6.17188-5.24854.2207-.16504.5332-.11914.7002.10205.16504.22168.11914.53516-.10254.69971-2.12109 1.57959-4.16504 3.31738-6.07422 5.16553-.09668.09375-.22266.14062-.34766.14062z" fill="#6894af"/></g><g><path d="m43.07714 45.11306c-.18457 0-.36182-.10254-.44922-.2793-.12158-.24756-.02002-.54736.22803-.66943 6.5752-3.23779 13.97119-5.00049 21.38819-5.09766.27734-.02588.50293.21729.50635.49365.00342.27588-.21729.50293-.49365.50635-7.26856.09521-14.51661 1.82227-20.95948 4.99512-.0708.03467-.146.05127-.22022.05127z" fill="#6894af"/></g><g><path d="m30.77148 53.79958c-.13037 0-.26025-.05078-.3584-.15137-.19238-.19775-.18799-.51416.00977-.70703 2.16309-2.10547 4.53369-4.01709 7.04541-5.68262.229-.15234.53955-.08936.69336.14063.15234.23047.08936.54053-.14063.69336-2.46045 1.63086-4.78223 3.50342-6.90088 5.56543-.09716.09473-.22314.1416-.34863.1416z" fill="#6894af"/></g><g><path d="m52.23486 57.6946c-.19824 0-.38623-.11865-.46436-.31445-.10254-.25635.02246-.54736.27881-.6499 5.76318-2.30322 12.24561-3.00635 18.74219-2.03564.27344.04102.46143.29541.4209.56836-.04102.27295-.29297.45996-.56836.4209-6.32178-.94531-12.62354-.2627-18.22364 1.9751-.06103.0244-.12353.03563-.18554.03563z" fill="#6894af"/></g><g><path d="m41.49316 64.61404c-.13232 0-.26416-.05225-.3623-.15576-.19043-.2002-.18213-.5166.01807-.70654 1.89746-1.80322 3.97559-3.38135 6.17627-4.68994.2373-.1416.54395-.06299.68506.17432s.06348.54395-.17432.68506c-2.13672 1.271-4.15479 2.80371-5.99854 4.55518-.09668.09227-.2207.13768-.34424.13768z" fill="#6894af"/></g></g></svg>