<svg id="Flat_Shadow" height="512" viewBox="0 0 32 32" width="512" xmlns="http://www.w3.org/2000/svg" data-name="Flat Shadow"><path d="m9.9194 6.0622c2.2092 3.8263 1.0359 9.7942 1.0359 9.7942s-5.7553-1.9679-7.9641-5.7942-.0359-8.0622-.0359-8.0622 4.7547.2358 6.9641 4.0622z" fill="#ffa6d1"/><path d="m9.2588 12.9121a11.6 11.6 0 0 1 -4.5352-3.85 6.4207 6.4207 0 0 1 -.4619-4.7974 6.4244 6.4244 0 0 1 3.9268 2.7978 11.56 11.56 0 0 1 1.0703 5.8496z" fill="#fc92ca"/><path d="m22.0806 6.0622c-2.2092 3.8263-1.0359 9.7942-1.0359 9.7942s5.7549-1.9679 7.9641-5.7942.0359-8.0622.0359-8.0622-4.7547.2358-6.9641 4.0622z" fill="#ffa6d1"/><path d="m22.7461 12.9092a11.6 11.6 0 0 1 1.0664-5.8472 6.4178 6.4178 0 0 1 3.9248-2.7964 6.4212 6.4212 0 0 1 -.4609 4.7964 11.5957 11.5957 0 0 1 -4.5303 3.8472z" fill="#fc92ca"/><path d="m29 20c0 7.18-5.82 10-13 10s-13-2.82-13-10 5.82-14 13-14 13 6.82 13 14z" fill="#ffcce3"/><path d="m25.635 10.8438a12.0571 12.0571 0 0 0 -7.635-2.8438c-7.18 0-13 6.82-13 14a9.39 9.39 0 0 0 1.5867 5.5229c2.3682 1.7171 5.7052 2.4771 9.4133 2.4771 7.18 0 13-2.82 13-10a14.5943 14.5943 0 0 0 -3.365-9.1562z" fill="#ffbfdc"/><ellipse cx="17" cy="23" fill="#ffa6d1" rx="5.5" ry="4.5"/><ellipse cx="16" cy="22" fill="#ffcce3" rx="5.5" ry="4.5"/><circle cx="14" cy="22" fill="#ffa6d1" r="1"/><circle cx="18" cy="22" fill="#ffa6d1" r="1"/><g fill="#444"><circle cx="21" cy="15" r="1"/><circle cx="11" cy="15" r="1"/></g></svg>