<svg id="Filled_Expand" height="512" viewBox="0 0 32 32" width="512" xmlns="http://www.w3.org/2000/svg" data-name="Filled Expand"><path d="m28.59 1.5s-5.6987 1.4-8.3094 5.3631a9.3325 9.3325 0 0 0 -1.3583 3.495 7.7454 7.7454 0 0 0 -5.8444 0 9.3325 9.3325 0 0 0 -1.3579-3.495c-2.6112-3.9631-8.31-5.3631-8.31-5.3631l4.9882 12.4642a13.8257 13.8257 0 0 0 -3.0346 8.25c0 5.7202 4.7621 8.2858 10.6364 8.2858s10.6364-2.5656 10.6364-8.2857a13.8257 13.8257 0 0 0 -3.0346-8.25z" fill="#f0f0f0"/><path d="m24.6364 20.2143c0 5.72-4.7621 8.2857-10.6364 8.2857a13.2012 13.2012 0 0 1 -7.4126-1.93c1.7807 2.6835 5.3248 3.93 9.4126 3.93 5.8743 0 10.6364-2.5657 10.6364-8.2857a13.8257 13.8257 0 0 0 -3.0346-8.25 26.0275 26.0275 0 0 1 1.0346 6.25z" fill="#e1e1e1"/><path d="m18 21a2 2 0 0 1 -4 0c0-1.1046.8954-1.5 2-1.5s2 .3954 2 1.5z" fill="#ffbfdc"/><path d="m6.2044 4.5324-2.7944-3.0324s-1.4658 5.0251 1.145 8.9881a11.62 11.62 0 0 0 3.8431 3.4761 9.4712 9.4712 0 0 0 -2.1937-9.4318z" fill="#ffbfdc"/><path d="m6.2044 4.5324-1.1963-1.2983a10.0722 10.0722 0 0 0 1.5473 5.2539 10.2384 10.2384 0 0 0 2.2746 2.3909 9.6881 9.6881 0 0 0 -2.6256-6.3465z" fill="#ffa6d1"/><path d="m25.7956 4.5324 2.7944-3.0324s1.4658 5.0251-1.145 8.9881a11.62 11.62 0 0 1 -3.8431 3.4761 9.4712 9.4712 0 0 1 2.1937-9.4318z" fill="#ffbfdc"/><path d="m25.7956 4.5324a9.688 9.688 0 0 0 -2.6256 6.3468 10.2454 10.2454 0 0 0 2.2749-2.3912 10.0729 10.0729 0 0 0 1.5472-5.2541z" fill="#ffa6d1"/><path d="m28.28 11.0386c2.833-4.3 1.3349-9.5952 1.27-9.8184l-.2683-.9202-.9306.2285c-.2481.0615-6.1111 1.5433-8.9063 5.785a9.9657 9.9657 0 0 0 -1.25 2.76 8.5329 8.5329 0 0 0 -4.39 0 9.962 9.962 0 0 0 -1.25-2.76c-2.7948-4.2417-8.6578-5.7235-8.9059-5.7847l-.9306-.2288-.2683.92c-.0649.2232-1.563 5.5186 1.27 9.8184a12.6861 12.6861 0 0 0 3.26 3.1878 14.72 14.72 0 0 0 -2.6167 7.988c.0005 5.7277 4.4595 9.2858 11.6367 9.2858s11.6362-3.5581 11.6362-9.2856a14.72 14.72 0 0 0 -2.6167-7.988 12.6861 12.6861 0 0 0 3.2605-3.1878zm-22.89-1.1006a9.8575 9.8575 0 0 1 -1.33-6.2573l1.4092 1.5293a9.9017 9.9017 0 0 1 2.1393 6.9846 10.0162 10.0162 0 0 1 -2.2185-2.2566zm20.2462 12.2764c0 6.76-7.3755 7.2856-9.6362 7.2856s-9.6362-.5254-9.6362-7.2856a12.8532 12.8532 0 0 1 2.8193-7.6309l.1436-.1821.0488-.2266c.6249-2.9039.169-7.2115-2.2166-10.038a10.7791 10.7791 0 0 1 3.7254 3.2763 8.35 8.35 0 0 1 1.21 3.1235l.2157 1.1914 1.1289-.4375a6.7783 6.7783 0 0 1 5.122 0l1.1289.4375.2163-1.1914a8.3521 8.3521 0 0 1 1.209-3.123 10.7817 10.7817 0 0 1 3.7258-3.2766c-2.3855 2.8265-2.8409 7.1341-2.2164 10.0378l.0488.2266.1436.1821a12.8532 12.8532 0 0 1 2.8193 7.6309zm-1.2447-10.02a9.9017 9.9017 0 0 1 2.1393-6.9844l1.4138-1.5342a9.8308 9.8308 0 0 1 -1.3346 6.2622 10.0162 10.0162 0 0 1 -2.2185 2.2566z"/><path d="m17 23.8157a2.995 2.995 0 0 0 2-2.8157c0-1.2085-.7881-2.5-3-2.5s-3 1.2915-3 2.5a2.995 2.995 0 0 0 2 2.8157v.6843l-2.4 1.8 1.2 1.6 2.2-1.65 2.2 1.65 1.2-1.6-2.4-1.8zm-1-3.3157c1 0 1 .3252 1 .5a1 1 0 0 1 -2 0c0-.1748 0-.5 1-.5z"/><circle cx="19.5" cy="16.5" r="1"/><circle cx="12.5" cy="16.5" r="1"/></svg>