<svg id="Flat_Shadow" height="512" viewBox="0 0 32 32" width="512" xmlns="http://www.w3.org/2000/svg" data-name="Flat Shadow"><path d="m28.59 2s-5.6987 1.4-8.3094 5.3631a9.3325 9.3325 0 0 0 -1.3583 3.495 7.7454 7.7454 0 0 0 -5.8444 0 9.3325 9.3325 0 0 0 -1.3579-3.495c-2.6112-3.9631-8.31-5.3631-8.31-5.3631l4.9882 12.4642a13.8257 13.8257 0 0 0 -3.0346 8.25c0 5.7202 4.7621 8.2858 10.6364 8.2858s10.6364-2.5656 10.6364-8.2857a13.8257 13.8257 0 0 0 -3.0346-8.25z" fill="#f0f0f0"/><path d="m24.6364 20.7143c0 5.72-4.7621 8.2857-10.6364 8.2857a13.2012 13.2012 0 0 1 -7.4126-1.93c1.7807 2.6835 5.3248 3.93 9.4126 3.93 5.8743 0 10.6364-2.5657 10.6364-8.2857a13.8257 13.8257 0 0 0 -3.0346-8.25 26.0275 26.0275 0 0 1 1.0346 6.25z" fill="#e1e1e1"/><g fill="#444"><path d="m15 22.5h2v4h-2z"/><path d="m16 24h2v4.5h-2z" transform="matrix(.6 -.8 .8 .6 -14.2 24.102)"/><path d="m12.75 25.25h4.5v2h-4.5z" transform="matrix(.8 -.6 .6 .8 -12.748 14.246)"/></g><path d="m18 21.5a2 2 0 0 1 -4 0c0-1.1046.8954-1.5 2-1.5s2 .3954 2 1.5z" fill="#ffbfdc"/><path d="m6.2044 5.0324-2.7944-3.0324s-1.4658 5.0251 1.145 8.9881a11.62 11.62 0 0 0 3.8431 3.4761 9.4712 9.4712 0 0 0 -2.1937-9.4318z" fill="#ffbfdc"/><path d="m6.2044 5.0324-1.1963-1.2983a10.0722 10.0722 0 0 0 1.5473 5.2539 10.2384 10.2384 0 0 0 2.2746 2.3909 9.6881 9.6881 0 0 0 -2.6256-6.3465z" fill="#ffa6d1"/><path d="m25.7956 5.0324 2.7944-3.0324s1.4658 5.0251-1.145 8.9881a11.62 11.62 0 0 1 -3.8431 3.4761 9.4712 9.4712 0 0 1 2.1937-9.4318z" fill="#ffbfdc"/><path d="m25.7956 5.0324a9.688 9.688 0 0 0 -2.6256 6.3468 10.2454 10.2454 0 0 0 2.2749-2.3912 10.0729 10.0729 0 0 0 1.5472-5.2541z" fill="#ffa6d1"/><circle cx="19.5" cy="17" fill="#444" r="1"/><circle cx="12.5" cy="17" fill="#444" r="1"/></svg>