<svg id="Flat_Shadow" height="512" viewBox="0 0 32 32" width="512" xmlns="http://www.w3.org/2000/svg" data-name="Flat Shadow"><circle cx="24" cy="8" fill="#f9df93" r="6"/><circle cx="24" cy="8" fill="#f9d57a" r="4"/><circle cx="8" cy="8" fill="#f9df93" r="6"/><circle cx="8" cy="8" fill="#f9d57a" r="4"/><path d="m19.838 22h8.325v2h-8.325z" fill="#e1e1e1" transform="matrix(.949 -.316 .316 .949 -6.044 8.774)"/><path d="m23 20.838h2v8.325h-2z" fill="#f0f0f0" transform="matrix(.316 -.949 .949 .316 -7.307 39.862)"/><path d="m7 18.838h2v8.325h-2z" fill="#e1e1e1" transform="matrix(.316 -.949 .949 .316 -16.349 23.315)"/><path d="m3.838 24h8.325v2h-8.325z" fill="#f0f0f0" transform="matrix(.949 -.316 .316 .949 -7.498 3.815)"/><path d="m16 8a9 9 0 0 0 -9 9c0 6.0971 5.3084 11.4318 8 12.7076h2c2.6916-1.2758 8-6.61 8-12.7076a9 9 0 0 0 -9-9z" fill="#ffefb9"/><path d="m23.2786 11.7214a8.9887 8.9887 0 0 0 -14.2786 7.2786 14.7334 14.7334 0 0 0 3.8618 9.25 10.46 10.46 0 0 0 2.1382 1.455l2 .0026c2.6916-1.2758 8-6.61 8-12.7076a8.9478 8.9478 0 0 0 -1.7214-5.2786z" fill="#ffe99d"/><g fill="#444"><circle cx="20" cy="16" r="1"/><circle cx="12" cy="16" r="1"/><path d="m17 25h-2v4.7076a2.5317 2.5317 0 0 0 1 .2924 2.5317 2.5317 0 0 0 1-.2924z"/></g><path d="m13 22v1a3 3 0 0 0 6 0v-1z" fill="#b37336"/></svg>