<svg id="Filled_Expand" height="512" viewBox="0 0 32 32" width="512" xmlns="http://www.w3.org/2000/svg" data-name="Filled Expand"><path d="m2 4h28v4h-28z" fill="#ffd80a"/><path d="m4 8h26v-2h-24a2 2 0 0 0 -2 2z" fill="#ffcd0a"/><path d="m10.1542 22.8458a6.998 6.998 0 1 0 9.6916-9.6916z" fill="#ffd80a"/><path d="m14 24a6.9965 6.9965 0 0 0 5.8459-10.8458 6.9964 6.9964 0 0 0 -9.6917 9.6917 6.9634 6.9634 0 0 0 3.8458 1.1541z" fill="#ffe632"/><circle cx="16" cy="19" fill="#fff06e" r="3"/><path d="m2 24h4v6h-4z" fill="#ffcd0a"/><path d="m6 26v-2h-4v6h2v-2a2 2 0 0 1 2-2z" fill="#ffd80a"/><path d="m26 24h4v6h-4z" fill="#ffcd0a" transform="matrix(-1 0 0 -1 56 54)"/><path d="m30 26v-2h-4v6h2v-2a2 2 0 0 1 2-2z" fill="#ffd80a"/><path d="m16 15a4 4 0 1 0 4 4 4.0045 4.0045 0 0 0 -4-4zm0 6a2 2 0 1 1 2-2 2.002 2.002 0 0 1 -2 2z"/><path d="m31 9v-6h-2v-2h-2v2h-22v-2h-2v2h-2v6h2v14h-2v8h6v-8h-2v-14h5.1171l.5111 4.0891a8 8 0 1 0 10.7436 0l.5111-4.0891h5.1171v14h-2v8h6v-8h-2v-14zm-26 20h-2v-4h2zm24 0h-2v-4h2zm-7-10a6 6 0 1 1 -6-6 6.0066 6.0066 0 0 1 6 6zm-2.4857-7.1757a7.9035 7.9035 0 0 0 -7.0286 0l-.3529-2.8243h7.7344zm-16.5143-4.8243v-2h26v2z"/></svg>