<svg id="Flat_Shadow" height="512" viewBox="0 0 32 32" width="512" xmlns="http://www.w3.org/2000/svg" data-name="Flat Shadow"><circle cx="6.5" cy="6.5" fill="#ffd80a" r="4.5"/><circle cx="6.5" cy="6.5" fill="#ffcd0a" r="2.5"/><circle cx="25.5" cy="6.5" fill="#ffd80a" r="4.5"/><circle cx="25.5" cy="6.5" fill="#ffcd0a" r="2.5"/><path d="m24.9922 8.0078a9.9741 9.9741 0 0 0 -7.9922-4.0078h-2a10 10 0 0 0 -10 10v3a1 1 0 0 1 -1 1h-2v1a2.9913 2.9913 0 0 0 2 2.8163z" fill="#fff06e"/><path d="m27 17v-3a9.9421 9.9421 0 0 0 -2.0078-5.9922 9.9421 9.9421 0 0 0 -5.9922-2.0078h-2a10 10 0 0 0 -10 10v3a1 1 0 0 1 -1 1h-2v1.8163a2.9721 2.9721 0 0 0 1 .1837v1a4 4 0 0 0 4 4l.5441 1.6324a2 2 0 0 0 1.8974 1.3676h9.117a2 2 0 0 0 1.8974-1.3676l.5441-1.6324a4 4 0 0 0 4-4v-1a3 3 0 0 0 3-3v-1h-2a1 1 0 0 1 -1-1z" fill="#ffe632"/><path d="m28 18a1.1019 1.1019 0 0 1 -.18-.02 2.9855 2.9855 0 0 1 -2.82 2.02v1a3.9989 3.9989 0 0 1 -4 4l-.54 1.63a2.0094 2.0094 0 0 1 -1.9 1.37h-9.2235l.2035.63a2.0094 2.0094 0 0 0 1.9 1.37h9.12a2.0094 2.0094 0 0 0 1.9-1.37l.54-1.63a3.9946 3.9946 0 0 0 4-4v-1a3.0045 3.0045 0 0 0 3-3v-1z" fill="#ffd80a"/><g fill="#444"><path d="m5 23a3.9682 3.9682 0 0 0 .1414 1h4.8586v-2h-5z"/><path d="m22 24h4.8586a3.9682 3.9682 0 0 0 .1414-1v-1h-5z"/><path d="m20 11.0723-.707-.7071a4.6629 4.6629 0 0 0 -6.586 0l-.707.7071-1.4141-1.4141.7071-.707a6.6531 6.6531 0 0 1 9.414 0l.7071.707z"/><path d="m15 4h2v8h-2z"/><path d="m19.905 26.844-2.905-2.325v-2.519h-2v2.519l-2.906 2.325 1.25 1.562 2.656-2.125 2.656 2.125z"/><path d="m15 19-2 1a3 3 0 0 0 3 3 3 3 0 0 0 3-3l-2-1z"/></g><path d="m19 20h-6v-6h2v4h2v-4h2z" fill="#ffcd0a"/><circle cx="22" cy="14" fill="#444" r="1"/><circle cx="10" cy="14" fill="#444" r="1"/></svg>