<?xml version="1.0" encoding="utf-8"?>
<svg xml:space="preserve" viewBox="0 0 100 100" y="0" x="0" xmlns="http://www.w3.org/2000/svg" id="圖層_1" version="1.1" style="height: 100%; width: 100%; background: none; shape-rendering: auto;" width="203px" height="203px"><g class="ldl-scale" style="transform-origin: 50% 50%; transform: rotate(0deg) scale(1, 1);"><g class="ldl-ani"><g class="ldl-layer"><g class="ldl-ani" style="transform: scale(0.91); transform-origin: 50px 50px; animation: 1.11111s linear -0.666667s infinite normal forwards running breath-1a64a931-cceb-4b9a-83d0-fd2c861c1b3c;"><path fill="#c33737" d="M63.12 45.874a27.146 27.146 0 0 0-1.481-.7c-.244-.107-.496-.202-.745-.302-.169-.068-.335-.14-.506-.205-3.174-1.206-6.685-1.89-10.389-1.89s-7.215.683-10.389 1.89c-.171.065-.337.137-.506.205-.249.1-.5.196-.745.302-.504.22-.997.454-1.481.7C29.468 49.652 24.5 56.518 24.5 64.38v14.467c0 2.984 2.855 5.403 6.378 5.403h38.244c3.522 0 6.378-2.419 6.378-5.403V64.38c0-7.862-4.968-14.728-12.38-18.506z" style="fill: rgb(195, 55, 55);"></path></g></g><g class="ldl-layer"><g class="ldl-ani" style="transform: scale(0.91); transform-origin: 50px 50px; animation: 1.11111s linear -0.777778s infinite normal forwards running breath-1a64a931-cceb-4b9a-83d0-fd2c861c1b3c;"><path fill="#77a4bd" d="M61.577 42.874a23 23 0 0 0-1.306-.7c-.216-.107-.438-.202-.657-.302-.149-.068-.295-.14-.446-.205-2.801-1.206-5.898-1.89-9.167-1.89s-6.366.683-9.167 1.89c-.151.065-.297.137-.446.205-.219.1-.441.196-.657.302a23.3 23.3 0 0 0-1.306.7C31.883 46.652 27.5 53.518 27.5 61.38v14.467c0 2.984 2.52 5.403 5.628 5.403H66.873c3.108 0 5.628-2.419 5.628-5.403V61.38c-.001-7.862-4.384-14.728-10.924-18.506z" style="fill: rgb(119, 164, 189);"></path></g></g><g class="ldl-layer"><g class="ldl-ani" style="transform: scale(0.91); transform-origin: 50px 50px; animation: 1.11111s linear -0.888889s infinite normal forwards running breath-1a64a931-cceb-4b9a-83d0-fd2c861c1b3c;"><path fill="#f5e6c8" d="M50 44.263c5.96 0 10.937-4.676 12.188-10.928-3.255 1.976-7.513 3.183-12.188 3.183s-8.933-1.208-12.188-3.183C39.063 39.588 44.04 44.263 50 44.263z" style="fill: rgb(255, 235, 195);"></path></g></g><g class="ldl-layer"><g class="ldl-ani" style="transform: scale(0.91); transform-origin: 50px 50px; animation: 1.11111s linear -1s infinite normal forwards running breath-1a64a931-cceb-4b9a-83d0-fd2c861c1b3c;"><path fill="#77a4bd" d="M50 15.75c-8.016 0-14.513 6.498-14.513 14.513 0 .49.026.973.073 1.45.728 7.335 6.914 13.063 14.44 13.063s13.712-5.729 14.44-13.063c.047-.477.073-.961.073-1.45 0-8.015-6.497-14.513-14.513-14.513zm0 28.513c-5.96 0-10.937-4.676-12.188-10.928 3.255 1.976 7.513 3.183 12.188 3.183s8.933-1.208 12.188-3.183C60.937 39.588 55.96 44.263 50 44.263z" style="fill: rgb(119, 164, 189);"></path></g></g><g class="ldl-layer"><g class="ldl-ani" style="transform: scale(0.91); transform-origin: 50px 50px; animation: 1.11111s linear -1.11111s infinite normal forwards running breath-1a64a931-cceb-4b9a-83d0-fd2c861c1b3c;"><path fill="#fff" d="M49.218 64.468l-7.513-6.345a1.212 1.212 0 0 1-.247-1.566l2.564-4.114c.221-.355.61-.571 1.028-.571h9.898c.418 0 .807.216 1.028.571l2.564 4.114a1.211 1.211 0 0 1-.247 1.566l-7.513 6.345a1.21 1.21 0 0 1-1.562 0z" style="fill: rgb(255, 255, 255);"></path></g></g><metadata xmlns:d="https://loading.io/stock/">
<d:name>super hero</d:name>
<d:tags>superman,super hero,people</d:tags>
<d:license>by</d:license>
<d:slug>tejnqr</d:slug>
</metadata></g></g><style id="breath-1a64a931-cceb-4b9a-83d0-fd2c861c1b3c" data-anikit="">@keyframes breath-1a64a931-cceb-4b9a-83d0-fd2c861c1b3c
{
  0% {
    animation-timing-function: cubic-bezier(0.9647,0.2413,-0.0705,0.7911);
    transform: scale(0.9099999999999999);
  }
  51% {
    animation-timing-function: cubic-bezier(0.9226,0.2631,-0.0308,0.7628);
    transform: scale(1.02994);
  }
  100% {
    transform: scale(0.9099999999999999);
  }
}</style><!-- [ldio] generated by https://loading.io/ --></svg>