<?xml version="1.0" encoding="utf-8"?>
<svg xml:space="preserve" viewBox="0 0 100 100" y="0" x="0" xmlns="http://www.w3.org/2000/svg" id="圖層_1" version="1.1" style="height: 100%; width: 100%; background: none; shape-rendering: auto;" width="212px" height="212px"><g class="ldl-scale" style="transform-origin: 50% 50%; transform: rotate(0deg) scale(1, 1);"><g class="ldl-ani"><g class="ldl-layer"><g class="ldl-ani" style="transform-origin: 50px 50px; transform: scale(0.91); animation: 1s linear -0.538462s infinite normal forwards running breath-939a3a06-ad8f-43dc-aec3-dd5fa574c38c;"><path fill="#ccc" d="M50.953 66.49l9.318-17.608c-3.081-1.522-6.567-2.397-10.27-2.397s-7.189.875-10.27 2.397l9.318 17.608c.363.976 1.539.976 1.904 0z" style="fill: rgb(204, 204, 204);"></path></g></g><g class="ldl-layer"><g class="ldl-ani" style="transform-origin: 50px 50px; transform: scale(0.91); animation: 1s linear -0.576923s infinite normal forwards running breath-939a3a06-ad8f-43dc-aec3-dd5fa574c38c;"><path d="M60.27 48.882L50.953 66.49c-.365.975-1.54.975-1.905 0L39.73 48.882C32.473 52.467 27.5 59.713 27.5 68.088v14.467c0 2.984 2.52 5.403 5.628 5.403h33.745c3.108 0 5.628-2.419 5.628-5.403V68.088c-.001-8.375-4.974-15.621-12.231-19.206z" style="fill: rgb(0, 0, 0);"></path></g></g><g class="ldl-layer"><g class="ldl-ani" style="transform-origin: 50px 50px; transform: scale(0.91); animation: 1s linear -0.615385s infinite normal forwards running breath-939a3a06-ad8f-43dc-aec3-dd5fa574c38c;"><circle fill="#c7b299" r="14.513" cy="36.972" cx="50" style="fill: rgb(199, 178, 153);"></circle></g></g><g class="ldl-layer"><g class="ldl-ani" style="transform-origin: 50px 50px; transform: scale(0.91); animation: 1s linear -0.653846s infinite normal forwards running breath-939a3a06-ad8f-43dc-aec3-dd5fa574c38c;"><path fill="#e0e0e0" d="M50 22.458c-.426 0-.846.028-1.263.064a14.453 14.453 0 0 0-3.089.602 14.517 14.517 0 0 0-10.016 11.903c.637.112 1.288.181 1.957.181 4.154 0 7.773-2.258 9.721-5.607 2.876 6.114 9.074 10.357 16.279 10.357.21 0 .414-.024.622-.031.197-.954.303-1.942.303-2.955 0-8.016-6.498-14.514-14.514-14.514z" style="fill: rgb(224, 224, 224);"></path></g></g><g class="ldl-layer"><g class="ldl-ani" style="transform-origin: 50px 50px; transform: scale(0.91); animation: 1s linear -0.692308s infinite normal forwards running breath-939a3a06-ad8f-43dc-aec3-dd5fa574c38c;"><path d="M60.568 30.542H38.731a2.022 2.022 0 0 1-2.017-1.888l-.921-13.878a2.583 2.583 0 0 1 2.578-2.735h22.556a2.582 2.582 0 0 1 2.578 2.735l-.921 13.878a2.02 2.02 0 0 1-2.016 1.888z" style="fill: rgb(0, 0, 0);"></path></g></g><g class="ldl-layer"><g class="ldl-ani" style="transform-origin: 50px 50px; transform: scale(0.91); animation: 1s linear -0.730769s infinite normal forwards running breath-939a3a06-ad8f-43dc-aec3-dd5fa574c38c;"><path fill="#e0e0e0" d="M41.418 43.577c.762.264 1.528.502 2.287.672.764.16 1.538.153 2.222.161.706-.012 1.274-.261 1.848-.283.594-.042 1.223-.213 2.147-.516l.156.153a3.515 3.515 0 0 1-1.612 2.799c-.912.603-1.953.407-2.793.134-.869-.253-1.605-.811-2.31-1.309a25.743 25.743 0 0 1-2.03-1.59l.085-.221z" style="fill: rgb(224, 224, 224);"></path></g></g><g class="ldl-layer"><g class="ldl-ani" style="transform-origin: 50px 50px; transform: scale(0.91); animation: 1s linear -0.769231s infinite normal forwards running breath-939a3a06-ad8f-43dc-aec3-dd5fa574c38c;"><path fill="#e0e0e0" d="M58.501 43.797a25.51 25.51 0 0 1-2.03 1.59c-.705.499-1.442 1.056-2.31 1.309-.84.273-1.881.468-2.793-.134a3.511 3.511 0 0 1-1.612-2.799l.156-.153c.924.303 1.553.475 2.147.516.574.021 1.142.27 1.848.283.684-.008 1.458-.001 2.222-.161.759-.17 1.525-.408 2.287-.672l.085.221z" style="fill: rgb(224, 224, 224);"></path></g></g><g class="ldl-layer"><g class="ldl-ani"><g><g class="ldl-layer"><g class="ldl-ani" style="transform-origin: 50px 50px; transform: scale(0.91); animation: 1s linear -0.807692s infinite normal forwards running breath-939a3a06-ad8f-43dc-aec3-dd5fa574c38c;"><path fill="#131f25" d="M53.178 51.898L50 52.834l-3.178-.937a1.32 1.32 0 0 0-1.694 1.266v2.438a1.32 1.32 0 0 0 1.694 1.267L50 55.932l3.178.937a1.32 1.32 0 0 0 1.694-1.267v-2.438a1.32 1.32 0 0 0-1.694-1.266z" style="fill: rgb(19, 31, 37);"></path></g></g><g class="ldl-layer"><g class="ldl-ani" style="transform-origin: 50px 50px; transform: scale(0.91); animation: 1s linear -0.846154s infinite normal forwards running breath-939a3a06-ad8f-43dc-aec3-dd5fa574c38c;"><path d="M50.421 52.523a3.288 3.288 0 0 0-.841 0c-.363.046-.636.4-.636.812v2.097c0 .412.273.765.636.812.279.036.562.036.841 0 .363-.046.636-.4.636-.812v-2.097c0-.412-.273-.766-.636-.812z" style="fill: rgb(0, 0, 0);"></path></g></g></g></g></g><g class="ldl-layer"><g class="ldl-ani" style="transform-origin: 50px 50px; transform: scale(0.91); animation: 1s linear -0.884615s infinite normal forwards running breath-939a3a06-ad8f-43dc-aec3-dd5fa574c38c;"><circle fill="#131f25" r="1.147" cy="60.23" cx="50" style="fill: rgb(19, 31, 37);"></circle></g></g><g class="ldl-layer"><g class="ldl-ani" style="transform-origin: 50px 50px; transform: scale(0.91); animation: 1s linear -0.923077s infinite normal forwards running breath-939a3a06-ad8f-43dc-aec3-dd5fa574c38c;"><circle fill="#131f25" r="1.147" cy="63.708" cx="50" style="fill: rgb(19, 31, 37);"></circle></g></g><g class="ldl-layer"><g class="ldl-ani" style="transform-origin: 50px 50px; transform: scale(0.91); animation: 1s linear -0.961538s infinite normal forwards running breath-939a3a06-ad8f-43dc-aec3-dd5fa574c38c;"><path d="M69 32.758c0 2.267-38 2.267-38 0v-2.036c0-1.054 1.303-1.837 2.721-1.653 6.998.907 25.559.907 32.557 0 1.419-.184 2.722.599 2.722 1.653v2.036z" style="fill: rgb(0, 0, 0);"></path></g></g><g class="ldl-layer"><g class="ldl-ani" style="transform-origin: 50px 50px; transform: scale(0.91); animation: 1s linear -1s infinite normal forwards running breath-939a3a06-ad8f-43dc-aec3-dd5fa574c38c;"><path fill="#333" d="M35.817 29.286c1.208.102 2.592.188 4.097.256h20.173c1.213-.055 2.345-.121 3.373-.198l.731-1.892c.468-1.211.102-2.657-1.005-3.336a2.75 2.75 0 0 0-1.446-.407H37.558c-.531 0-1.026.149-1.446.407-1.107.679-1.473 2.125-1.005 3.336l.71 1.834z" style="fill: rgb(51, 51, 51);"></path></g></g><metadata xmlns:d="https://loading.io/stock/"><d:name>monopoly</d:name><d:tags>rich,capital,entrepreneur,monarch,money,monopoly,people</d:tags><d:license>pro</d:license><d:slug>jvc4na</d:slug></metadata></g></g><style id="breath-939a3a06-ad8f-43dc-aec3-dd5fa574c38c" data-anikit="">@keyframes breath-939a3a06-ad8f-43dc-aec3-dd5fa574c38c
{
  0% {
    animation-timing-function: cubic-bezier(0.9647,0.2413,-0.0705,0.7911);
    transform: scale(0.9099999999999999);
  }
  51% {
    animation-timing-function: cubic-bezier(0.9226,0.2631,-0.0308,0.7628);
    transform: scale(1.02994);
  }
  100% {
    transform: scale(0.9099999999999999);
  }
}</style><!-- [ldio] generated by https://loading.io/ --></svg>